<?xml version="1.0" encoding="utf-8"?>
<!-- Generator: Adobe Illustrator 24.1.0, SVG Export Plug-In . SVG Version: 6.00 Build 0)  -->
<svg version="1.1" xmlns="http://www.w3.org/2000/svg" xmlns:xlink="http://www.w3.org/1999/xlink" x="0px" y="0px"
	 viewBox="0 0 750 500" style="enable-background:new 0 0 750 500;" xml:space="preserve">
<style type="text/css">
	.st0{fill:#FFFFFF;}
	.st1{fill:#FFB575;}
	.st2{fill:#A0C77F;stroke:#693C3C;stroke-width:2;stroke-linecap:round;stroke-linejoin:round;stroke-miterlimit:10;}
	.st3{fill:#B08271;}
	.st4{fill:#826053;}
	.st5{fill:none;stroke:#693C3C;stroke-width:2;stroke-linecap:round;stroke-linejoin:round;stroke-miterlimit:10;}
	.st6{fill:#B08271;stroke:#693C3C;stroke-width:2;stroke-linecap:round;stroke-linejoin:round;stroke-miterlimit:10;}
	.st7{fill:#693C3C;}
	.st8{fill:#FFC9BA;stroke:#693C3C;stroke-width:2;stroke-linecap:round;stroke-miterlimit:10;}
	.st9{fill:#FFE3D8;}
	.st10{fill:#FFC9BA;}
	.st11{fill:none;stroke:#693C3C;stroke-width:2;stroke-linecap:round;stroke-miterlimit:10;}
	.st12{fill:none;stroke:#BA7366;stroke-width:2;stroke-linecap:round;stroke-miterlimit:10;}
	.st13{fill:#ED9087;}
	.st14{fill:none;stroke:#693C3C;stroke-width:1.5;stroke-miterlimit:10;}
	.st15{fill:#D85461;}
	.st16{fill:#FFB0A4;}
	.st17{fill:none;stroke:#A13E49;stroke-linecap:round;stroke-miterlimit:10;}
	.st18{fill:#FFE3D8;stroke:#693C3C;stroke-width:2;stroke-linecap:round;stroke-linejoin:round;stroke-miterlimit:10;}
	.st19{fill:#C99581;}
	.st20{fill:#FFE3D8;stroke:#693C3C;stroke-width:2;stroke-linecap:round;stroke-miterlimit:10;}
	.st21{fill:#A0C77F;}
	.st22{fill:#85BDFF;stroke:#693C3C;stroke-width:2;stroke-linecap:round;stroke-linejoin:round;stroke-miterlimit:10;}
	.st23{fill:#616263;stroke:#693C3C;stroke-width:2;stroke-linecap:round;stroke-linejoin:round;stroke-miterlimit:10;}
	.st24{fill:#616263;}
	.st25{fill:#505152;}
	.st26{fill:#2C2D2E;}
	.st27{fill:#FFB0A4;stroke:#693C3C;stroke-width:2;stroke-linecap:round;stroke-linejoin:round;stroke-miterlimit:10;}
	.st28{fill:#7D7E80;}
	.st29{fill:#85BDFF;}
	.st30{fill:#F090A0;stroke:#693C3C;stroke-width:2;stroke-linecap:round;stroke-linejoin:round;stroke-miterlimit:10;}
	.st31{fill:#FFFFFF;stroke:#693C3C;stroke-width:2;stroke-linecap:round;stroke-linejoin:round;stroke-miterlimit:10;}
	.st32{fill:#FFB0BD;stroke:#693C3C;stroke-width:2;stroke-linecap:round;stroke-linejoin:round;stroke-miterlimit:10;}
	.st33{fill:#B34550;}
	.st34{fill:#BA7366;}
	.st35{fill:#F090A0;}
	.st36{fill:#FFB0BD;}
	.st37{fill:#D85461;stroke:#693C3C;stroke-width:2;stroke-linecap:round;stroke-linejoin:round;stroke-miterlimit:10;}
</style>
<g id="BACKGROUND">
	<g>
		<polygon class="st0" points="0,222.53 22.46,235.11 47.64,221.01 72.82,235.11 97.99,221.01 123.17,235.11 148.35,221.01 
			173.53,235.11 198.71,221.01 223.89,235.11 249.07,221.01 274.25,235.11 299.42,221.01 324.6,235.11 349.78,221.01 374.97,235.11 
			400.15,221.01 425.33,235.11 450.51,221.01 475.69,235.11 500.88,221.01 526.06,235.11 551.24,221.01 576.42,235.11 601.6,221.01 
			626.78,235.11 651.97,221.01 677.15,235.11 702.34,221.01 727.53,235.11 750,222.53 750,212.14 727.53,224.72 702.34,210.62 
			677.15,224.72 651.97,210.62 626.78,224.72 601.6,210.62 576.42,224.72 551.24,210.62 526.06,224.72 500.88,210.62 475.69,224.72 
			450.51,210.62 425.33,224.72 400.15,210.62 374.97,224.72 349.78,210.62 324.6,224.72 299.42,210.62 274.25,224.72 249.07,210.62 
			223.89,224.72 198.71,210.62 173.53,224.72 148.35,210.62 123.17,224.72 97.99,210.62 72.82,224.72 47.64,210.62 22.46,224.72 
			0,212.14 		"/>
		<polygon class="st0" points="750,266.41 727.53,278.99 702.34,264.89 677.15,278.99 651.97,264.89 626.78,278.99 601.6,264.89 
			576.42,278.99 551.24,264.89 526.06,278.99 500.88,264.89 475.69,278.99 450.51,264.89 425.33,278.99 400.15,264.89 
			374.97,278.99 349.78,264.89 324.6,278.99 299.42,264.89 274.25,278.99 249.07,264.89 223.89,278.99 198.71,264.89 173.53,278.99 
			148.35,264.89 123.17,278.99 97.99,264.89 72.82,278.99 47.64,264.89 22.46,278.99 0,266.41 0,276.8 22.46,289.38 47.64,275.28 
			72.82,289.38 97.99,275.28 123.17,289.38 148.35,275.28 173.53,289.38 198.71,275.28 223.89,289.38 249.07,275.28 274.25,289.38 
			299.42,275.28 324.6,289.38 349.78,275.28 374.97,289.38 400.15,275.28 425.33,289.38 450.51,275.28 475.69,289.38 500.88,275.28 
			526.06,289.38 551.24,275.28 576.42,289.38 601.6,275.28 626.78,289.38 651.97,275.28 677.15,289.38 702.34,275.28 727.53,289.38 
			750,276.8 		"/>
		<polygon class="st0" points="47.64,248.14 72.82,262.25 97.99,248.14 123.17,262.25 148.35,248.14 173.53,262.25 198.71,248.14 
			223.89,262.25 249.07,248.14 274.25,262.25 299.42,248.14 324.6,262.25 349.78,248.14 374.97,262.25 400.15,248.14 425.33,262.25 
			450.51,248.14 475.69,262.25 500.88,248.14 526.06,262.25 551.24,248.14 576.42,262.25 601.6,248.14 626.78,262.25 651.97,248.14 
			677.15,262.25 702.34,248.14 727.53,262.25 750,249.66 750,239.28 727.53,251.86 702.34,237.75 677.15,251.86 651.97,237.75 
			626.78,251.86 601.6,237.75 576.42,251.86 551.24,237.75 526.06,251.86 500.88,237.75 475.69,251.86 450.51,237.75 425.33,251.86 
			400.15,237.75 374.97,251.86 349.78,237.75 324.6,251.86 299.42,237.75 274.25,251.86 249.07,237.75 223.89,251.86 198.71,237.75 
			173.53,251.86 148.35,237.75 123.17,251.86 97.99,237.75 72.82,251.86 47.64,237.75 22.46,251.86 0,239.28 0,249.67 22.46,262.25 
					"/>
	</g>
</g>
<g id="OBJECTS">
	<g>
		<path class="st1" d="M200.28,445.63c0,5.34-28.29,9.67-63.2,9.67c-34.9,0-63.2-4.33-63.2-9.67c0-5.34,28.29-9.67,63.2-9.67
			C171.98,435.97,200.28,440.29,200.28,445.63z"/>
		<path class="st1" d="M656.78,445.63c0,5.34-31.46,9.67-70.27,9.67c-38.81,0-70.28-4.33-70.28-9.67c0-5.34,31.46-9.67,70.28-9.67
			C625.31,435.97,656.78,440.29,656.78,445.63z"/>
		<path class="st1" d="M456.04,445.63c0,5.34-36.29,9.67-81.04,9.67c-44.76,0-81.05-4.33-81.05-9.67c0-5.34,36.29-9.67,81.05-9.67
			C419.76,435.97,456.04,440.29,456.04,445.63z"/>
	</g>
	<g>
		<path class="st2" d="M185,308.35c5.06,5.34,16,18.88,17.43,22.49c1.44,3.61,1.07,10.79-0.22,13.98
			c-1.28,3.19-22.28,2.75-26.41,2.75v-39.22H185z"/>
		<g>
			<path class="st3" d="M109.49,368.33c-20.25-14.25-33.5-28.63-37.38-48.63c-3.13,2-4.88,6.25-4.88,6.25c-2.38-4.88-9-19.5-9-19.5
				s-13.63,11.75-7.88,36.88c-3.88-1.25-6.13-1.75-6.13-1.75s9.63,39.5,65.25,38.88V368.33z"/>
			<path class="st4" d="M63.99,352.2c0,0,7.25,5.24,10.37,5.31c-0.25-6.68-0.88-12.56-0.88-12.56c2.38,2,7.75,4.13,7.75,4.13
				s0.37-3.11,0.39-7.01c-4.66-6.75-7.9-14.07-9.51-22.36c-3.13,2-4.88,6.25-4.88,6.25c-2.38-4.88-9-19.5-9-19.5
				s-13.63,11.75-7.88,36.88c-3.88-1.25-6.13-1.75-6.13-1.75s2.7,11.06,13.47,21.38c3.02,0.31,6.79,0.57,11.4,0.67
				C65.49,358.95,63.99,352.2,63.99,352.2z"/>
			<path class="st5" d="M109.49,368.33c-20.25-14.25-33.5-28.63-37.38-48.63c-3.13,2-4.88,6.25-4.88,6.25c-2.38-4.88-9-19.5-9-19.5
				s-13.63,11.75-7.88,36.88c-3.88-1.25-6.13-1.75-6.13-1.75s9.63,39.5,65.25,38.88V368.33z"/>
		</g>
		<path class="st2" d="M193.34,430.38c0,0,7.6,8.19,8.59,9.1c0.99,0.91,1.18,3.41-1.4,4.5c-2.58,1.1-15.91,1.54-20.41,1.21
			c-4.51-0.33-7.78-2.28-7.97-3.71c-0.19-1.43-0.94-11.55-0.94-11.55s5.11-6.75,13.21-6.18
			C190.99,424.23,193.34,430.38,193.34,430.38z"/>
		<path class="st2" d="M88.8,436.03c0,0-8.19,7.6-9.1,8.59c-0.91,0.99-3.41,1.18-4.5-1.4c-1.1-2.58-1.54-15.91-1.21-20.41
			c0.33-4.51,2.28-7.78,3.71-7.97c1.43-0.19,11.55-0.94,11.55-0.94s6.75,5.11,6.18,13.21C94.96,433.68,88.8,436.03,88.8,436.03z"/>
		<g>
			<path class="st6" d="M95.19,358c-3.36,10.75-3.72,21.38,1.8,44.88c-4.44,3.75-12,10.25-12.12,11.63
				c-0.12,1.38-1.32,14.5,4.14,22.38c0,0,25.63,5.25,32.35,5.88c6.72,0.63,15.36-2.25,19.81-7.88c4.44-5.63,11.22-16.31,11.22-16.31
				l13.98-1.31c0,0,2.63,13.44,2.93,14.44c0.3,1,1.98,1.81,3.72,1.81c1.74,0,19.93,0,20.89,0c0.96,0,2.52-0.75,3-1.94
				c0.48-1.19,8.53-22.88,9.73-27.13s1.8-12.88-3.96-18.88c-5.76-6-19.63-20.69-29.71-27.56H95.19z"/>
			<g>
				<path class="st7" d="M97.04,401.88c0,0,0.1,0.01,0.3,0.03c0.21,0.02,0.48,0.06,0.84,0.1c0.7,0.11,1.69,0.28,2.85,0.57
					c1.16,0.3,2.5,0.68,3.89,1.21c0.7,0.25,1.41,0.55,2.13,0.86c0.73,0.29,1.42,0.67,2.14,1.01c0.71,0.36,1.39,0.75,2.07,1.12
					c0.66,0.41,1.31,0.81,1.94,1.2c0.61,0.42,1.19,0.83,1.75,1.22c0.56,0.38,1.04,0.8,1.51,1.16c0.46,0.37,0.9,0.69,1.25,1.02
					c0.36,0.32,0.67,0.6,0.93,0.83c0.51,0.46,0.81,0.72,0.81,0.72c0.23,0.2,0.25,0.55,0.04,0.77c-0.2,0.22-0.53,0.24-0.76,0.06
					l-0.03-0.02c0,0-0.3-0.24-0.81-0.67c-0.26-0.21-0.57-0.47-0.93-0.77c-0.35-0.31-0.79-0.6-1.25-0.94
					c-0.47-0.33-0.95-0.73-1.51-1.07c-0.55-0.35-1.14-0.73-1.74-1.12c-0.62-0.35-1.27-0.72-1.92-1.09
					c-0.67-0.33-1.35-0.69-2.04-1.01c-0.7-0.3-1.38-0.64-2.09-0.89c-0.7-0.27-1.38-0.54-2.06-0.75c-1.35-0.46-2.64-0.78-3.74-1.02
					c-1.11-0.24-2.04-0.36-2.68-0.44c-0.65-0.07-0.97-0.08-0.99-0.08l-0.04,0c-0.55-0.03-0.97-0.5-0.95-1.05
					c0.03-0.55,0.5-0.97,1.05-0.95C97.02,401.87,97.03,401.88,97.04,401.88z"/>
			</g>
			<g>
				<path class="st7" d="M99.89,402.56c0,0,0.2-0.03,0.54-0.09c0.36-0.06,0.85-0.12,1.45-0.19c1.19-0.13,2.78-0.25,4.37-0.25
					c0.8,0,1.59-0.01,2.33,0.05c0.74,0.05,1.44,0.05,2.03,0.14c1.18,0.14,1.97,0.24,1.97,0.24c0.23,0.03,0.4,0.24,0.37,0.47
					c-0.03,0.23-0.23,0.39-0.45,0.37l-0.03,0c0,0-0.77-0.05-1.93-0.12c-0.58-0.06-1.26-0.02-1.98-0.03
					c-0.72-0.02-1.5,0.04-2.27,0.08c-1.54,0.09-3.08,0.29-4.21,0.48c-0.57,0.1-1.04,0.18-1.36,0.25c-0.33,0.07-0.52,0.11-0.52,0.11
					l-0.02,0c-0.42,0.09-0.83-0.17-0.92-0.59c-0.09-0.42,0.17-0.83,0.59-0.92C99.86,402.56,99.88,402.56,99.89,402.56z"/>
			</g>
			<g>
				<path class="st7" d="M151.56,418c0,0,3.28-4.86,6.56-9.72c0.81-1.22,1.63-2.44,2.42-3.56c0.38-0.57,0.72-1.14,1.06-1.67
					c0.35-0.53,0.67-1.02,0.97-1.48c1.2-1.84,2.07-3.04,2.07-3.04l0.01-0.02c0.08-0.12,0.25-0.14,0.36-0.06
					c0.1,0.07,0.13,0.21,0.09,0.31c0,0-0.59,1.35-1.58,3.34c-0.49,1-1.06,2.16-1.73,3.38c-0.68,1.2-1.43,2.47-2.19,3.74
					c-0.77,1.26-1.49,2.55-2.25,3.7c-0.75,1.16-1.45,2.24-2.06,3.17c-1.22,1.85-2.07,3.04-2.07,3.04l-0.01,0.01
					c-0.32,0.45-0.95,0.55-1.4,0.23C151.36,419.05,151.26,418.44,151.56,418z"/>
			</g>
			<g>
				<path class="st7" d="M165.79,416.43c0,0,0.83-0.56,2.08-1.39c1.22-0.86,2.9-1.94,4.5-3.12c0.81-0.58,1.62-1.16,2.38-1.71
					c0.78-0.53,1.42-1.09,2-1.55c1.15-0.93,1.91-1.55,1.91-1.55l0.07-0.06c0.24-0.19,0.58-0.16,0.78,0.08
					c0.18,0.23,0.16,0.56-0.06,0.75c0,0-0.75,0.68-1.88,1.71c-0.57,0.51-1.22,1.14-1.96,1.71c-0.73,0.59-1.52,1.22-2.3,1.85
					c-1.56,1.28-3.18,2.46-4.36,3.4c-1.2,0.91-2,1.51-2,1.51c-0.44,0.33-1.07,0.25-1.4-0.2c-0.33-0.44-0.25-1.07,0.2-1.4
					C165.75,416.46,165.77,416.45,165.79,416.43L165.79,416.43z"/>
			</g>
			<g>
				<path class="st7" d="M170.98,416.4c0,0,0.09,0,0.26,0c0.17,0.01,0.39,0,0.65-0.01c0.26-0.01,0.57-0.01,0.91-0.03
					c0.34-0.03,0.7-0.07,1.05-0.1c0.36-0.04,0.73-0.06,1.05-0.14c0.33-0.07,0.64-0.13,0.91-0.18c0.54-0.11,0.9-0.18,0.9-0.18
					l0.05-0.01c0.23-0.04,0.45,0.1,0.49,0.33c0.04,0.2-0.07,0.4-0.25,0.47c0,0-0.35,0.15-0.88,0.36c-0.27,0.11-0.58,0.24-0.91,0.38
					c-0.33,0.15-0.7,0.24-1.07,0.36c-0.37,0.11-0.74,0.22-1.09,0.33c-0.35,0.09-0.69,0.16-0.98,0.22c-0.59,0.14-0.94,0.19-0.94,0.19
					l-0.03,0c-0.55,0.08-1.06-0.31-1.13-0.86c-0.08-0.55,0.31-1.06,0.86-1.13C170.87,416.4,170.93,416.4,170.98,416.4z"/>
			</g>
		</g>
		<g>
			<path class="st2" d="M144.58,287.76c0,0-21.5,7.61-26.5,11.79c-5,4.18-12.17,15.35-20.33,39.85s-6.5,37.17-5.83,39.17
				s23.26,19.85,62.71,14.62c27.38-3.63,40.96-15.96,40.46-18.12c-0.5-2.17-8.17-11.33-8.17-11.33s3.58-37.42-1.29-54.54
				c-5.25-7.63-22.63-18.75-23.5-19.38S144.58,287.76,144.58,287.76z"/>
			<g>
				<path class="st7" d="M186.86,364.73c0,0-0.31-0.02-0.85-0.06c-0.54-0.04-1.3-0.05-2.21-0.09c-0.91-0.04-1.98-0.07-3.14-0.05
					c-1.16,0-2.39,0.01-3.62,0.02c-1.24-0.02-2.47,0.08-3.63,0.11c-1.16,0.05-2.24,0.09-3.17,0.13c-1.85,0.08-3.09,0.13-3.09,0.13
					l-0.01,0c-0.2,0.01-0.37-0.15-0.38-0.35c-0.01-0.19,0.14-0.36,0.32-0.38c0,0,1.23-0.13,3.09-0.33c0.93-0.1,2.01-0.21,3.17-0.34
					c1.16-0.11,2.39-0.28,3.64-0.35c1.24-0.09,2.48-0.17,3.65-0.25c1.16-0.1,2.26-0.13,3.21-0.15c0.94-0.02,1.74-0.06,2.28-0.06
					c0.54,0,0.85,0.01,0.85,0.01c0.55,0,1,0.46,0.99,1.01c0,0.55-0.45,1-1.01,0.99c-0.02,0-0.04,0-0.06,0L186.86,364.73z"/>
			</g>
			<g>
				<path class="st7" d="M185.34,363.69c0,0-0.16-0.1-0.44-0.27c-0.28-0.18-0.67-0.37-1.15-0.64c-0.47-0.26-1.03-0.56-1.68-0.84
					c-0.64-0.29-1.31-0.6-1.99-0.92c-0.67-0.33-1.39-0.57-2.04-0.83c-0.66-0.25-1.27-0.49-1.8-0.7c-1.05-0.41-1.76-0.68-1.76-0.68
					l-0.02-0.01c-0.19-0.07-0.28-0.28-0.21-0.47c0.07-0.17,0.26-0.27,0.43-0.22c0,0,0.73,0.2,1.83,0.5
					c0.55,0.15,1.19,0.32,1.88,0.51c0.68,0.2,1.43,0.36,2.15,0.62c0.73,0.25,1.45,0.49,2.13,0.72c0.68,0.21,1.32,0.47,1.86,0.7
					c0.54,0.23,1.02,0.41,1.31,0.56c0.3,0.14,0.47,0.23,0.47,0.23c0.5,0.24,0.71,0.84,0.47,1.34c-0.24,0.5-0.84,0.71-1.34,0.47
					c-0.03-0.01-0.06-0.03-0.09-0.05L185.34,363.69z"/>
			</g>
		</g>
		<path class="st8" d="M140.61,293.79c1.94,6.11,9.9,11.06,17.77,11.06c7.87,0,12.67-4.95,10.73-11.06
			c-1.95-6.11-9.9-11.06-17.77-11.06C143.47,282.73,138.66,287.68,140.61,293.79z"/>
		<g>
			<g>
				<path class="st9" d="M228.27,254.65c1.15,8.25,1.13,16.45-1.69,21.82c-9.12,17.36-41.03,26.15-68.44,22.12
					c-19.95-2.93-47.02-19.37-51.97-30.38c-8.78-7.86-21.34-46.26-6.18-76.04c15.16-29.78,46.04-38.21,84.21-29.74
					c38.17,8.47,48.62,25.67,50.86,49.42C237,232.42,228.88,250.52,228.27,254.65z"/>
				<g>
					<path class="st10" d="M141.1,242.33c10.08,1.48,17.36,8.69,16.27,16.1c-1.09,7.41-10.14,12.22-20.21,10.74
						c-10.07-1.48-17.36-8.69-16.27-16.1C121.98,245.66,131.03,240.85,141.1,242.33z"/>
					<path class="st10" d="M202.12,265c1.09-7.41,10.14-12.22,20.21-10.74c2.2,0.32,4.25,0.93,6.12,1.74
						c0.96,7.79,0.8,15.39-1.86,20.46c-0.89,1.7-2.01,3.31-3.32,4.85c-1.58,0.08-3.21,0.03-4.88-0.22
						C208.31,279.61,201.03,272.41,202.12,265z"/>
				</g>
				<path class="st11" d="M228.27,254.65c1.15,8.25,1.13,16.45-1.69,21.82c-9.12,17.36-41.03,26.15-68.44,22.12
					c-19.95-2.93-47.02-19.37-51.97-30.38c-8.78-7.86-21.34-46.26-6.18-76.04c15.16-29.78,46.04-38.21,84.21-29.74
					c38.17,8.47,48.62,25.67,50.86,49.42C237,232.42,228.88,250.52,228.27,254.65z"/>
			</g>
			<g>
				<path class="st3" d="M191.32,150.73c0,0-13.19-5.43-31.26-5.48c-17.31-0.04-37.44,0-60.22,18.05
					c-14.05,11.13-19.67,28.68-20.59,31.01c-4.75,8.33-8.58,19.42-7.75,19.5c0.83,0.08,7.67-1.67,9.08-2.67
					c0.67,10.58,4.75,28.08,10.83,35.42l13.67-7.62c0,0,3.42,4.23,6.83,5.63l14.46-53.76C126.37,190.82,160.14,161.03,191.32,150.73
					z"/>
				<path class="st4" d="M91.41,246.57l13.67-7.62c0,0,3.42,4.23,6.83,5.63l9.35-34.77c-6.81,0.94-26.53,3.63-29.35,3.57
					c-2.5,4.44-3.75,7.16-3.75,7.16s-1.75-4.97-2.42-4.31c-0.43,0.43-2.21,2.61-3.49,6.8C84.1,232.01,87.3,241.61,91.41,246.57z"/>
				<path class="st5" d="M191.32,150.73c0,0-13.19-5.43-31.26-5.48c-17.31-0.04-37.44,0-60.22,18.05
					c-14.05,11.13-19.67,28.68-20.59,31.01c-4.75,8.33-8.58,19.42-7.75,19.5c0.83,0.08,7.67-1.67,9.08-2.67
					c0.67,10.58,4.75,28.08,10.83,35.42l13.67-7.62c0,0,3.42,4.23,6.83,5.63l14.46-53.76C126.37,190.82,160.14,161.03,191.32,150.73
					z"/>
			</g>
			<g>
				<path class="st9" d="M90.77,236.13c3.35-2.75,11.15-1.96,15.42,4.22l1.55,27.71c-7.46,1.75-16.18-2.95-19.59-11.98
					C84.43,246.22,86.39,239.72,90.77,236.13z"/>
				<path class="st5" d="M94.86,244c0,0,5.45,1.62,7.18,10.47c-2.67-3.36-7.49-2.74-8.69-0.2"/>
				<path class="st11" d="M106.2,240.36c-4.27-6.19-12.08-6.97-15.42-4.22c-4.38,3.59-6.35,10.08-2.62,19.96
					c3.41,9.03,12.13,13.72,19.59,11.98"/>
			</g>
			<path class="st12" d="M192.55,261.38c0,0,2.78,3.06-1.62,5.07"/>
			<g>
				<g>
					<path class="st13" d="M145.7,253.04c0,0-0.14-0.12-0.39-0.29c-0.24-0.18-0.62-0.42-1.06-0.71c-0.47-0.25-0.98-0.59-1.59-0.87
						c-0.59-0.29-1.23-0.6-1.89-0.85c-0.33-0.13-0.65-0.26-0.98-0.39c-0.33-0.1-0.66-0.21-0.97-0.31c-0.31-0.1-0.62-0.19-0.91-0.28
						c-0.29-0.09-0.57-0.14-0.83-0.2c-1.03-0.23-1.71-0.39-1.71-0.39l-0.06-0.01c-0.4-0.09-0.66-0.49-0.57-0.9
						c0.09-0.4,0.49-0.66,0.9-0.57c0.02,0,0.04,0.01,0.06,0.02c0,0,0.7,0.22,1.76,0.55c0.26,0.09,0.55,0.16,0.84,0.28
						c0.29,0.12,0.6,0.24,0.92,0.37c0.32,0.13,0.65,0.26,0.98,0.4c0.32,0.16,0.65,0.32,0.98,0.49c0.66,0.31,1.3,0.68,1.88,1.03
						c0.6,0.34,1.11,0.73,1.56,1.03c0.44,0.34,0.8,0.61,1.04,0.83c0.25,0.21,0.38,0.34,0.38,0.34l0.01,0.01
						c0.11,0.11,0.11,0.29,0,0.4C145.97,253.13,145.81,253.13,145.7,253.04z"/>
				</g>
				<g>
					<path class="st13" d="M141.96,254.33c0,0-0.1-0.06-0.28-0.16c-0.17-0.1-0.43-0.23-0.75-0.39c-0.32-0.15-0.69-0.32-1.1-0.48
						c-0.41-0.15-0.84-0.33-1.29-0.46c-0.44-0.15-0.89-0.28-1.31-0.37c-0.42-0.1-0.81-0.21-1.16-0.25
						c-0.68-0.11-1.14-0.19-1.14-0.19l-0.06-0.01c-0.41-0.07-0.69-0.45-0.62-0.86c0.07-0.41,0.45-0.69,0.86-0.62
						c0.03,0,0.06,0.01,0.09,0.02c0,0,0.48,0.14,1.19,0.35c0.36,0.09,0.76,0.26,1.19,0.42c0.44,0.15,0.88,0.35,1.33,0.56
						c0.45,0.19,0.88,0.43,1.28,0.64c0.4,0.22,0.76,0.45,1.08,0.64c0.31,0.2,0.56,0.37,0.73,0.5c0.17,0.13,0.27,0.2,0.27,0.2
						c0.13,0.09,0.15,0.27,0.06,0.4c-0.09,0.12-0.25,0.15-0.37,0.08L141.96,254.33z"/>
				</g>
				<g>
					<path class="st13" d="M138.26,255.63c0,0-0.24-0.06-0.59-0.12c-0.35-0.07-0.81-0.13-1.28-0.17c-0.23-0.02-0.46-0.06-0.68-0.05
						c-0.21,0-0.41,0.01-0.58,0.01c-0.34,0-0.56,0.01-0.56,0.01l-0.1,0c-0.42,0-0.76-0.33-0.77-0.75c0-0.42,0.33-0.76,0.75-0.77
						c0.06,0,0.12,0.01,0.18,0.02c0,0,0.25,0.06,0.64,0.15c0.19,0.04,0.41,0.1,0.64,0.15c0.23,0.05,0.47,0.15,0.7,0.23
						c0.48,0.16,0.94,0.35,1.28,0.5c0.35,0.14,0.56,0.26,0.56,0.26l0.02,0.01c0.14,0.08,0.19,0.25,0.11,0.38
						C138.52,255.61,138.38,255.66,138.26,255.63z"/>
				</g>
			</g>
			<g>
				<g>
					<path class="st13" d="M215.33,262.83c0,0,0.08-0.08,0.26-0.21c0.17-0.14,0.42-0.32,0.73-0.53c0.15-0.11,0.33-0.2,0.51-0.31
						c0.18-0.1,0.37-0.23,0.58-0.33c0.42-0.19,0.85-0.44,1.33-0.58c0.23-0.08,0.47-0.17,0.7-0.25c0.23-0.09,0.47-0.12,0.7-0.18
						c0.46-0.1,0.88-0.23,1.26-0.25c0.75-0.08,1.25-0.13,1.25-0.13c0.41-0.04,0.78,0.26,0.83,0.67c0.04,0.41-0.26,0.78-0.67,0.83
						c-0.03,0-0.06,0-0.09,0l-0.1,0c0,0-0.45-0.01-1.11-0.02c-0.34-0.03-0.73,0.04-1.15,0.08c-0.21,0.03-0.43,0.03-0.65,0.08
						c-0.22,0.05-0.44,0.1-0.66,0.15c-0.45,0.08-0.87,0.26-1.28,0.38c-0.21,0.06-0.39,0.16-0.57,0.24
						c-0.18,0.08-0.36,0.14-0.51,0.23c-0.31,0.16-0.56,0.29-0.72,0.4c-0.17,0.1-0.27,0.17-0.27,0.17c-0.13,0.09-0.3,0.07-0.4-0.06
						c-0.09-0.12-0.07-0.27,0.03-0.37L215.33,262.83z"/>
				</g>
				<g>
					<path class="st13" d="M217.25,264.91c0,0,0.07-0.04,0.18-0.12c0.12-0.08,0.3-0.19,0.51-0.31c0.42-0.23,1.01-0.51,1.63-0.71
						c0.31-0.09,0.63-0.2,0.94-0.25c0.31-0.05,0.59-0.13,0.84-0.14c0.51-0.04,0.84-0.06,0.84-0.06c0.42-0.03,0.78,0.29,0.81,0.7
						c0.03,0.42-0.29,0.78-0.7,0.81c-0.05,0-0.09,0-0.14,0l-0.09-0.01c0,0-0.28-0.03-0.7-0.08c-0.21-0.04-0.46-0.01-0.73-0.02
						c-0.27-0.01-0.56,0.03-0.85,0.06c-0.58,0.07-1.15,0.21-1.58,0.35c-0.21,0.07-0.38,0.13-0.5,0.18
						c-0.12,0.04-0.19,0.08-0.19,0.08c-0.14,0.07-0.31,0.02-0.38-0.12C217.09,265.15,217.13,264.99,217.25,264.91z"/>
				</g>
				<g>
					<path class="st13" d="M219.24,266.97c0,0,0.13-0.06,0.37-0.12c0.23-0.07,0.55-0.15,0.88-0.19c0.16-0.02,0.33-0.06,0.49-0.06
						c0.17,0,0.32,0.01,0.45,0.01c0.27,0.01,0.45,0.02,0.45,0.02c0.43,0.02,0.76,0.38,0.74,0.81c-0.02,0.43-0.38,0.76-0.81,0.74
						c-0.1,0-0.19-0.03-0.28-0.06l-0.12-0.05c0,0-0.11-0.05-0.28-0.12c-0.09-0.04-0.19-0.09-0.3-0.14c-0.11-0.05-0.25-0.07-0.38-0.1
						c-0.27-0.08-0.55-0.12-0.76-0.14c-0.21-0.03-0.37-0.03-0.37-0.03c-0.16,0-0.29-0.12-0.29-0.27c0-0.12,0.07-0.22,0.17-0.27
						L219.24,266.97z"/>
				</g>
			</g>
			<path class="st7" d="M172.04,235.74c1.16,0.74,1.93-6.4,0.59-8.07c-3.1-3.85-11.93-6.83-11.81-5.89
				C160.94,222.73,166.49,232.19,172.04,235.74z"/>
			<path class="st7" d="M202.67,238.75c-1.01,0.39-0.84-6.56,0.42-7.77c2.93-2.81,10.38-3.24,10.17-2.39
				C213.06,229.45,207.53,236.88,202.67,238.75z"/>
			<g>
				<path class="st0" d="M217.32,234.91c-4.84-1.02-8.91,2.56-11.11,4.86c-2.2,2.3-4.29,6.84-3.65,13.58
					c2.13,4.75,9.73,6.78,14.93,6.46c5.2-0.32,8.15-5.59,9.04-9.6C227.42,246.21,226.82,236.91,217.32,234.91z"/>
				<path class="st7" d="M201.46,248.63c1.29-3.97,6.83-13.36,15.2-12.31c8.37,1.05,10.96,8.75,9.55,14.84
					c1.59-0.19,3.71-2.21,3.71-2.21s-0.3-11.78-9.52-14.71C210.32,231.04,203.42,238.35,201.46,248.63z"/>
				<g>
					<path class="st3" d="M226.21,248.44c-0.76,6.43-5.27,11.18-10.09,10.62c-4.82-0.57-8.11-6.24-7.35-12.67
						c0.76-6.43,5.27-11.18,10.09-10.61C223.68,236.34,226.97,242.01,226.21,248.44z"/>
					<path class="st4" d="M226.31,246.05c-0.2-5.39-3.24-9.78-7.44-10.27c-4.82-0.57-9.33,4.18-10.09,10.61c0,0.04,0,0.07-0.01,0.1
						C211.96,245.42,218.92,243.73,226.31,246.05z"/>
					<path class="st14" d="M226.21,248.44c-0.76,6.43-5.27,11.18-10.09,10.62c-4.82-0.57-8.11-6.24-7.35-12.67
						c0.76-6.43,5.27-11.18,10.09-10.61C223.68,236.34,226.97,242.01,226.21,248.44z"/>
				</g>
				<path class="st7" d="M222.55,248.01c-0.33,2.82-2.31,4.9-4.42,4.65c-2.11-0.25-3.55-2.73-3.22-5.55
					c0.33-2.82,2.31-4.9,4.42-4.65C221.44,242.71,222.89,245.19,222.55,248.01z"/>
				<path class="st0" d="M206.22,246.09c2.27-0.85,7.89-0.19,7.91,0.93c0.03,1.12-4.58,4.16-7.18,4.33
					C204.36,251.52,204.15,246.87,206.22,246.09z"/>
				<path class="st0" d="M224.33,249.71c-0.46-1.11-2.71-1.58-2.89-1.13c-0.18,0.45,1.38,3.28,1.94,3.31
					C223.94,251.93,224.67,250.54,224.33,249.71z"/>
			</g>
			<g>
				<path class="st0" d="M135.09,243.43c3.49,3.66,11.85,9.34,18.78,9.87c6.92,0.53,9.48-2.41,9.48-2.41s3.9-8.55,2.06-14.07
					c-1.84-5.52-7.81-12.6-18.73-10.3C135.76,228.83,134.12,238.4,135.09,243.43z"/>
				<g>
					<g>
						<path class="st3" d="M164.41,241.88c-0.76,6.43-5.65,11.14-10.92,10.52c-5.27-0.62-8.94-6.34-8.18-12.77
							c0.76-6.43,5.65-11.14,10.92-10.52C161.5,229.73,165.16,235.45,164.41,241.88z"/>
						<path class="st4" d="M164.49,239.48c-0.27-5.4-3.65-9.83-8.26-10.37c-5.27-0.62-10.16,4.09-10.92,10.52
							c0,0.04,0,0.07-0.01,0.1C148.78,238.69,156.38,237.07,164.49,239.48z"/>
						<path class="st14" d="M164.41,241.88c-0.76,6.43-5.65,11.14-10.92,10.52c-5.27-0.62-8.94-6.34-8.18-12.77
							c0.76-6.43,5.65-11.14,10.92-10.52C161.5,229.73,165.16,235.45,164.41,241.88z"/>
					</g>
					<path class="st7" d="M160.41,241.41c-0.33,2.82-2.47,4.88-4.79,4.61c-2.31-0.27-3.92-2.78-3.59-5.6
						c0.33-2.82,2.47-4.88,4.79-4.61C159.13,236.08,160.74,238.59,160.41,241.41z"/>
					<path class="st0" d="M142.52,239.3c2.47-0.83,8.63-0.1,8.67,1.02c0.04,1.12-4.97,4.12-7.81,4.25
						C140.54,244.71,140.26,240.06,142.52,239.3z"/>
					<path class="st0" d="M162.37,243.13c-0.51-1.12-2.98-1.61-3.17-1.16c-0.19,0.45,1.54,3.3,2.16,3.34
						S162.75,243.96,162.37,243.13z"/>
				</g>
				<path class="st7" d="M166.04,247.45c0,0-0.07-16.16-11.28-19.33c-11.21-3.16-19.44,6.86-19.67,15.31
					c-2.87-1.3-5.85-5.23-5.85-5.23s7.92-15.16,20.63-14.3C163.13,224.79,168.84,236.55,166.04,247.45z"/>
			</g>
		</g>
		<g>
			<path class="st15" d="M186.57,275.01c-2.37-1-9.37,7.44-9.68,9.63s1.43,3.13,4.84,3.13s7.41-1,7.6-3.13
				S187.73,275.5,186.57,275.01z"/>
			<path class="st16" d="M181.72,287.76c2.65,0,5.64-0.61,6.94-1.87c-1.95-1.77-5.32-4.28-9.55-5.08c-1.22,1.59-2.13,3.08-2.23,3.83
				C176.57,286.83,178.32,287.76,181.72,287.76z"/>
			<path class="st17" d="M188.66,285.89c-1.95-1.77-5.32-4.28-9.55-5.08"/>
			<g>
				<path class="st0" d="M188.24,278.47c-0.53-1.76-1.16-3.24-1.67-3.45c-1.17-0.49-3.48,1.32-5.54,3.55
					C183.75,278.83,186.37,278.67,188.24,278.47z"/>
				<path class="st17" d="M181.02,278.56c2.73,0.26,5.35,0.11,7.21-0.09"/>
			</g>
			<path class="st17" d="M186.57,275.01c-2.37-1-9.37,7.44-9.68,9.63s1.43,3.13,4.84,3.13s7.41-1,7.6-3.13
				S187.73,275.5,186.57,275.01z"/>
		</g>
		<g>
			<g>
				<path class="st3" d="M236.87,193.93c13.5-18.01,21.25-51.99,20.38-54.99s-44.42,6.31-60.13,22.38
					C197.12,161.32,206.24,185.93,236.87,193.93z"/>
				<path class="st4" d="M220.3,147.38c6.29,4.01,17.49,10.11,32.05,13.72c3.58-11.25,5.33-20.64,4.89-22.15
					C256.67,136.97,237.71,140.31,220.3,147.38z"/>
				<path class="st5" d="M236.87,193.93c13.5-18.01,21.25-51.99,20.38-54.99s-44.42,6.31-60.13,22.38
					C197.12,161.32,206.24,185.93,236.87,193.93z"/>
			</g>
			<path class="st18" d="M232.24,193.49c8.17-12.35,11.96-34.97,11.27-36.91c-0.69-1.94-28.93,5.85-38.63,17.01
				C204.87,173.59,211.81,189.41,232.24,193.49z"/>
		</g>
		<g>
			<g>
				<path class="st3" d="M153.91,158.42c-13.84-17.75-44.6-34.14-47.73-34.08c-3.13,0.06-5.56,44.52,5.83,63.89
					C112.01,188.23,138.15,185.88,153.91,158.42z"/>
				<path class="st4" d="M104.63,162.2c5.52-5.01,14.34-14.23,21.64-27.33c-9.92-6.4-18.52-10.55-20.1-10.53
					C104.13,124.38,102.38,143.55,104.63,162.2z"/>
				<path class="st5" d="M153.91,158.42c-13.84-17.75-44.6-34.14-47.73-34.08c-3.13,0.06-5.56,44.52,5.83,63.89
					C112.01,188.23,138.15,185.88,153.91,158.42z"/>
			</g>
			<path class="st18" d="M152.26,162.77c-9.77-11.13-30.61-20.71-32.66-20.55c-2.05,0.16-1.94,29.46,6.29,41.74
				C125.89,183.97,142.97,181.41,152.26,162.77z"/>
		</g>
		<g>
			<path class="st3" d="M190.12,150.57c46.13,6.13,55.04,39.5,59.21,53.25c2.17,3.75,7.92,14.5,7.92,15.75s-5,0.25-10.08-3.08
				c-2.42,19.83-13.33,30.42-14.17,30.8c-0.83,0.39-4.83-17.3-6.17-22.88c0,0-1.75,4.41-2.41,5.03c-0.66,0.62-4.92-14.87-8.92-24.87
				c0,6.25-5.09,18.42-5.59,18.75c-0.5,0.33-2.33-4.08-2.75-6.08c-4.5,11.17-25.58,25.83-26.92,25.75
				c-1.33-0.08-4.92-20.58-4.92-20.58s-2.58-6.75-2.5-9.92c0,0-5.58,7.58-6.09,7.75c-0.51,0.17-4.74-10.83-4.27-22.25
				c-7.86,16.33-32.14,30.67-32.64,30.72c-0.5,0.06,0.33-6.56,1.17-9.89c0,0-7.58,11.08-10.21,15.17c0,0-5.38,16.33-6.29,16.83
				s-11.42-20.17-13.33-38.25c-1.42-13,2.33-34.5,29.33-49.38S170.49,147.44,190.12,150.57z"/>
			<g>
				<path class="st7" d="M104.76,188.45c0,0,0.09-0.24,0.27-0.69c0.18-0.44,0.45-1.09,0.79-1.92c0.32-0.83,0.89-1.78,1.5-2.91
					c0.31-0.55,0.63-1.16,1.03-1.75c0.41-0.58,0.84-1.19,1.29-1.83c0.85-1.31,2.02-2.54,3.18-3.9c1.14-1.38,2.58-2.6,3.97-3.97
					c0.74-0.63,1.51-1.25,2.28-1.88c0.79-0.62,1.53-1.31,2.39-1.86c0.84-0.58,1.68-1.16,2.53-1.75c0.43-0.29,0.84-0.6,1.28-0.87
					l1.33-0.79c1.76-1.04,3.57-2.14,5.34-3.05c1.76-0.96,3.5-1.89,5.18-2.8c1.71-0.88,3.41-1.66,5-2.43
					c0.8-0.38,1.58-0.74,2.34-1.07c0.77-0.3,1.52-0.6,2.24-0.88c1.44-0.56,2.77-1.05,3.95-1.45c1.21-0.33,2.28-0.6,3.16-0.8
					c1.76-0.4,2.78-0.56,2.78-0.56c0.21-0.04,0.41,0.11,0.44,0.32c0.03,0.17-0.06,0.33-0.2,0.41l-0.03,0.01c0,0-0.92,0.47-2.55,1.19
					c-0.81,0.36-1.8,0.77-2.95,1.21c-1.12,0.52-2.39,1.09-3.78,1.68c-0.7,0.29-1.42,0.6-2.18,0.91c-0.74,0.35-1.5,0.71-2.28,1.08
					c-1.57,0.73-3.23,1.5-4.95,2.3c-1.7,0.87-3.46,1.77-5.24,2.69c-1.82,0.88-3.47,1.94-5.21,2.99l-1.29,0.78
					c-0.42,0.27-0.82,0.58-1.23,0.86c-0.82,0.58-1.63,1.15-2.43,1.73c-0.83,0.54-1.54,1.22-2.29,1.82c-0.74,0.62-1.49,1.22-2.2,1.83
					c-0.67,0.65-1.33,1.29-1.98,1.92c-0.66,0.62-1.31,1.22-1.86,1.88c-1.14,1.28-2.26,2.46-3.14,3.68
					c-0.46,0.59-0.91,1.15-1.33,1.69c-0.43,0.53-0.75,1.09-1.11,1.58c-0.7,0.99-1.34,1.83-1.77,2.63c-0.48,0.76-0.85,1.35-1.1,1.76
					c-0.26,0.4-0.41,0.62-0.41,0.62c-0.13,0.2-0.39,0.25-0.59,0.12C104.76,188.85,104.69,188.63,104.76,188.45z"/>
			</g>
			<path class="st19" d="M151.47,181.19c-10.08-0.23-35.12-0.88-33.25,1.88s16.93,10.38,43.62,10.84
				c27.4,0.48,43.75-5.55,41.46-7.34C199.47,183.57,178.84,181.82,151.47,181.19z"/>
			<path class="st19" d="M243.56,187.73c-1.93-4.18-4.41-8.57-7.68-12.84c-8.19,4.59-15.03,9.62-14.14,11.95
				C222.65,189.26,231.89,188.89,243.56,187.73z"/>
			<g>
				<path class="st7" d="M214.5,204.57c0,0,0.01-0.29,0.01-0.8c0.01-0.5,0.01-1.22-0.01-2.09c0-0.87-0.07-1.88-0.11-2.97
					c-0.04-0.54-0.08-1.1-0.12-1.67c-0.05-0.57-0.07-1.15-0.15-1.73c-0.16-1.15-0.25-2.31-0.45-3.38c-0.09-0.54-0.19-1.05-0.27-1.54
					c-0.09-0.49-0.15-0.96-0.27-1.38c-0.42-1.69-0.7-2.81-0.7-2.81l-0.01-0.04c-0.06-0.23,0.08-0.46,0.31-0.52
					c0.22-0.06,0.44,0.07,0.51,0.28c0,0,0.36,1.13,0.9,2.83c0.15,0.42,0.24,0.89,0.36,1.39c0.12,0.5,0.25,1.02,0.38,1.56
					c0.27,1.08,0.44,2.25,0.67,3.42c0.11,0.58,0.17,1.17,0.26,1.75c0.08,0.58,0.16,1.15,0.23,1.7c0.11,1.11,0.24,2.14,0.3,3.02
					c0.07,0.89,0.12,1.63,0.14,2.16c0.02,0.52,0.03,0.81,0.03,0.81c0.02,0.55-0.4,1.02-0.96,1.04c-0.55,0.02-1.02-0.41-1.04-0.96
					c0-0.02,0-0.04,0-0.06L214.5,204.57z"/>
			</g>
			<g>
				<path class="st7" d="M130.07,218.43c0,0,0.32-0.67,0.8-1.68c0.48-1,1.1-2.35,1.79-3.68c1.34-2.66,2.68-5.33,2.68-5.33
					c0.11-0.22,0.38-0.31,0.6-0.2c0.21,0.1,0.3,0.35,0.22,0.56l-0.01,0.03c0,0-1.08,2.75-2.16,5.51c-0.55,1.36-1.04,2.77-1.43,3.81
					c-0.38,1.05-0.64,1.74-0.64,1.74c-0.19,0.52-0.76,0.79-1.28,0.6c-0.52-0.19-0.79-0.76-0.6-1.28
					C130.04,218.49,130.06,218.46,130.07,218.43z"/>
			</g>
			<g>
				<path class="st7" d="M105.3,233.83c0,0-0.5-1.59-1.26-3.96c-0.19-0.59-0.4-1.24-0.57-1.94c-0.19-0.7-0.38-1.44-0.59-2.2
					c-0.2-0.76-0.41-1.55-0.62-2.35c-0.17-0.81-0.34-1.63-0.51-2.45c-0.17-0.82-0.34-1.64-0.51-2.45c-0.17-0.81-0.24-1.63-0.35-2.4
					c-0.11-0.78-0.21-1.54-0.3-2.25c-0.05-0.36-0.1-0.71-0.14-1.04c-0.04-0.37-0.05-0.67-0.08-0.99c-0.04-0.62-0.09-1.19-0.11-1.7
					c-0.01-0.52-0.01-0.97-0.02-1.34c-0.01-0.74-0.01-1.17-0.01-1.17c0-0.37,0.29-0.67,0.66-0.68c0.36,0,0.66,0.28,0.68,0.64l0,0.04
					c0,0,0.02,0.41,0.04,1.12c0.01,0.35,0.03,0.79,0.05,1.28c0.03,0.5,0.1,1.07,0.15,1.69c0.03,0.3,0.05,0.65,0.1,0.95
					c0.05,0.33,0.11,0.67,0.16,1.02c0.11,0.7,0.23,1.43,0.35,2.2c0.13,0.76,0.22,1.55,0.4,2.34c0.18,0.79,0.37,1.59,0.56,2.39
					c0.19,0.8,0.37,1.6,0.56,2.39c0.23,0.78,0.45,1.54,0.66,2.28c0.22,0.74,0.43,1.45,0.62,2.13c0.19,0.68,0.4,1.32,0.61,1.91
					c0.81,2.36,1.36,3.93,1.36,3.93c0.18,0.52-0.1,1.09-0.62,1.27c-0.52,0.18-1.09-0.1-1.27-0.62
					C105.3,233.84,105.3,233.83,105.3,233.83z"/>
			</g>
			<path class="st5" d="M106.25,233.51c3.57,10.05,7.69,17.61,8.25,17.3c0.92-0.5,6.29-16.83,6.29-16.83
				c2.62-4.08,10.21-15.17,10.21-15.17c-0.83,3.33-1.67,9.94-1.17,9.89c0.5-0.06,24.79-14.39,32.64-30.72
				c-0.48,11.42,3.76,22.42,4.27,22.25c0.51-0.17,6.09-7.75,6.09-7.75c-0.08,3.17,2.5,9.92,2.5,9.92s3.58,20.5,4.92,20.58
				c1.33,0.08,22.42-14.58,26.92-25.75c0.42,2,2.25,6.42,2.75,6.08c0.5-0.33,5.59-12.5,5.59-18.75c4,10,8.26,25.49,8.92,24.87
				c0.66-0.62,2.41-5.03,2.41-5.03c1.34,5.58,5.34,23.27,6.17,22.88c0.83-0.39,11.75-10.97,14.17-30.8
				c5.08,3.33,10.08,4.33,10.08,3.08s-5.75-12-7.92-15.75c-4.17-13.75-13.08-47.13-59.21-53.25c0,0-2.41-1.17-4.7-1.78"/>
		</g>
		<path class="st20" d="M145.24,321.89c0,0,0.46-10.94,0.42-12.03c-0.04-1.08,1.29-3.58,4.38-4.58c0,0,1.25-2.58,1.83-4.54
			c0.58-1.96,2.96-4.83,4.42-3.63c1.46,1.21,3.58,3.71,3.58,3.71s5.94,4.24,7.14,6.61c1.2,2.38,0.76,5.46,0,7.46
			c-0.76,2-2.87,11.67-2.87,11.67S150.49,329.97,145.24,321.89z"/>
		<g>
			<path class="st21" d="M164.99,320.73c0,0-18.83-4.83-19.92-5c-1.08-0.17-2.83,0.5-3.42,1.67c-0.58,1.17-2.33,3.75-2.33,3.75
				s-7.67-9.92-13.17-13.58c-5.5-3.67-12.42,6.08-15.42,15c-3,8.92-2.67,20.17-2.58,21.25s2.42,3.08,4,3.75
				c1.58,0.67,19.42,8.42,35.33,10.5c6.64,0.87,12.33-0.08,14.42-6.92c2.08-6.83,4.96-27.02,5.08-27.9S166.18,321.04,164.99,320.73z
				"/>
			<g>
				<path class="st7" d="M140.11,321.77c0,0-0.12,0.15-0.33,0.41c-0.2,0.24-0.49,0.63-0.83,1.1c-0.18,0.23-0.34,0.5-0.52,0.77
					c-0.18,0.28-0.39,0.56-0.57,0.88c-0.36,0.63-0.79,1.28-1.12,1.98c-0.18,0.35-0.36,0.69-0.53,1.03
					c-0.18,0.34-0.31,0.69-0.46,1.03c-0.28,0.67-0.58,1.29-0.75,1.85c-0.38,1.11-0.63,1.85-0.63,1.85l-0.01,0.04
					c-0.08,0.24-0.34,0.37-0.58,0.29c-0.23-0.08-0.35-0.32-0.3-0.54c0,0,0.19-0.78,0.48-1.96c0.12-0.6,0.38-1.26,0.61-1.98
					c0.13-0.36,0.23-0.74,0.39-1.11c0.15-0.37,0.31-0.74,0.46-1.12c0.29-0.76,0.67-1.48,1-2.17c0.16-0.35,0.35-0.66,0.52-0.97
					c0.17-0.31,0.32-0.6,0.48-0.86c0.32-0.53,0.58-0.96,0.8-1.28c0.2-0.3,0.32-0.47,0.32-0.47c0.31-0.46,0.94-0.57,1.39-0.26
					c0.46,0.31,0.57,0.94,0.26,1.39c-0.02,0.02-0.03,0.04-0.05,0.07L140.11,321.77z"/>
			</g>
			<g>
				<path class="st7" d="M136.27,318.97c0,0-0.6-0.75-1.49-1.87c-0.89-1.11-2.13-2.56-3.39-3.97c-0.65-0.69-1.28-1.4-1.92-2.02
					c-0.62-0.64-1.23-1.2-1.76-1.67c-0.52-0.49-0.99-0.83-1.31-1.09c-0.32-0.25-0.51-0.4-0.51-0.4l-0.03-0.03
					c-0.21-0.16-0.24-0.46-0.08-0.67c0.15-0.2,0.43-0.24,0.64-0.1c0,0,0.2,0.14,0.56,0.38c0.35,0.25,0.88,0.57,1.44,1.04
					c0.58,0.45,1.25,0.98,1.92,1.59c0.7,0.59,1.39,1.27,2.1,1.92c1.39,1.35,2.74,2.73,3.73,3.8c0.98,1.06,1.63,1.77,1.63,1.77
					c0.37,0.41,0.35,1.04-0.06,1.41c-0.41,0.37-1.04,0.35-1.41-0.06C136.31,319.02,136.29,319,136.27,318.97L136.27,318.97z"/>
			</g>
			<path class="st5" d="M133.44,355.09c4.54,1.26,9.38,2.36,14.05,2.98c6.64,0.87,12.33-0.08,14.42-6.92
				c2.08-6.83,4.96-27.02,5.08-27.9s-0.81-2.22-2-2.52c0,0-18.83-4.83-19.92-5c-1.08-0.17-2.83,0.5-3.42,1.67
				c-0.58,1.17-2.33,3.75-2.33,3.75s-0.89-1.16-2.29-2.82"/>
			<g>
				<path class="st7" d="M112.33,347.15c0,0,0.33,0.13,0.9,0.35c0.58,0.22,1.4,0.55,2.39,0.91c0.99,0.36,2.15,0.79,3.39,1.24
					c1.25,0.43,2.59,0.86,3.92,1.3c1.34,0.42,2.66,0.92,3.94,1.25c1.27,0.36,2.45,0.69,3.47,0.97c2.03,0.57,3.38,0.95,3.38,0.95
					l0.05,0.01c0.53,0.15,0.84,0.7,0.69,1.23c-0.15,0.53-0.7,0.84-1.23,0.69c-0.01,0-0.03-0.01-0.05-0.01c0,0-1.35-0.45-3.37-1.13
					c-1.01-0.34-2.19-0.73-3.45-1.15c-1.27-0.39-2.57-0.96-3.9-1.45c-1.32-0.51-2.65-1.01-3.88-1.5c-1.22-0.52-2.37-1-3.35-1.41
					c-0.98-0.41-1.78-0.77-2.35-1.03c-0.56-0.25-0.89-0.4-0.89-0.4c-0.23-0.1-0.33-0.37-0.23-0.59
					C111.85,347.17,112.11,347.07,112.33,347.15z"/>
			</g>
		</g>
		<g>
			<path class="st9" d="M164.37,330.86c0,0-24.33,0.83-25.67,1.08c-1.33,0.25-2.46,1-2.54,2.46c-0.08,1.46,7.88,4.79,8.5,5.08
				c0.42,0.2,1.34,1.63,1.91,2.55c-0.91-0.27-1.7-0.29-2.24-0.05c-1,0.46-2,1.91-1.5,3.16s6.04,2.83,8.42,3.63
				c2.38,0.79,11.58,0.13,14.96-0.21c3.38-0.33,4.58-7.04,4.54-10.25C170.7,335.11,169.24,330.44,164.37,330.86z"/>
			<path class="st5" d="M156.24,342.32c-2.5-0.75-6.08-0.13-7.13,0.92c-1.96-1.25-3.79-1.7-4.79-1.25s-2,1.91-1.5,3.16
				s6.04,2.83,8.42,3.63c2.38,0.79,11.58,0.13,14.96-0.21c3.38-0.33,4.58-7.04,4.54-10.25c-0.04-3.21-1.5-7.88-6.38-7.46
				c0,0-24.33,0.83-25.67,1.08c-1.33,0.25-2.46,1-2.54,2.46c-0.08,1.46,7.88,4.79,8.5,5.08s2.2,2.64,2.2,2.64"/>
		</g>
		<g>
			<path class="st21" d="M161.8,328.38c-1.06,0.13-1.63,1.31-1.69,3.25s0.69,16.88,0.84,18.25c0.16,1.38,1.22,2.94,4.22,3.13
				s26.88-0.56,29.56-0.75s7.56-5.25,7.94-9.38s-11.41-13.51-14.67-15.32C184.74,325.75,170.12,327.38,161.8,328.38z"/>
			<path class="st5" d="M185.12,326.88c-5.6-0.55-16.55,0.68-23.32,1.5c-1.06,0.13-1.63,1.31-1.69,3.25s0.69,16.88,0.84,18.25
				c0.16,1.38,1.22,2.94,4.22,3.13s26.88-0.56,29.56-0.75s7.56-5.25,7.94-9.38c0,0,0.53-2.62,0.58-3.37"/>
			<g>
				<path class="st7" d="M197.63,335.96c0,0-0.74-0.65-1.86-1.63c-0.55-0.5-1.21-1.06-1.94-1.61c-0.36-0.28-0.73-0.57-1.11-0.86
					c-0.38-0.29-0.75-0.6-1.16-0.88c-0.8-0.55-1.59-1.13-2.35-1.63c-0.38-0.23-0.75-0.45-1.1-0.66c-0.17-0.11-0.34-0.21-0.51-0.31
					l-0.03-0.02l-0.02-0.01l-0.01,0c-0.02-0.01,0.13,0.06,0.06,0.03l0,0l-0.07-0.03l-0.14-0.05c-0.09-0.04-0.18-0.07-0.26-0.11
					c-0.31-0.08-0.48-0.13-0.79-0.17c-0.27-0.04-0.5-0.08-0.71-0.1c-0.4-0.04-0.64-0.06-0.64-0.06l-0.05,0
					c-0.55-0.05-0.96-0.54-0.91-1.09c0.05-0.55,0.54-0.96,1.09-0.91c0.02,0,0.04,0,0.06,0.01c0,0,0.26,0.04,0.71,0.11
					c0.22,0.03,0.51,0.09,0.83,0.16c0.29,0.05,0.77,0.21,1.16,0.35c0.08,0.04,0.17,0.08,0.26,0.12l0.13,0.06l0.07,0.03l0.08,0.04
					l0.01,0.01l0.02,0.01l0.03,0.02c0.17,0.12,0.35,0.24,0.53,0.37c0.36,0.25,0.75,0.51,1.15,0.79c0.76,0.57,1.53,1.21,2.31,1.83
					c0.4,0.3,0.76,0.65,1.14,0.98c0.37,0.33,0.73,0.65,1.09,0.96c0.72,0.61,1.34,1.22,1.86,1.74c1.05,1.04,1.76,1.74,1.76,1.74
					c0.2,0.2,0.2,0.52,0,0.73C198.14,336.13,197.83,336.13,197.63,335.96z"/>
			</g>
		</g>
	</g>
	<g>
		<g>
			<path class="st8" d="M507.61,332.42c2.14,4.86,10.15,7.54,15.71,2.52c5.56-5.02,0.42-13.29-3.47-13.41
				S503.14,322.25,507.61,332.42z"/>
			<path class="st20" d="M511.71,319.2c-1.04-1.29-7.46-3.72-9.13,0.82c-1.67,4.54-1.7,12.26-0.35,14.3
				c1.35,2.04,8.05,3.69,10.04,1.17c2-2.53,3.6-8.54,3.13-10.91C514.93,322.21,511.71,319.2,511.71,319.2z"/>
			<path class="st20" d="M523.05,320.28c0,0-7.61-2.71-8.87-2.87c-1.26-0.15-3.52,0.43-4.5,1.8c-0.98,1.37-2.75,5.12-2.16,6.03
				c0.59,0.91,2.44,2.69,4.98,0.57c1.22,2.27,6.62,6.33,10.55,3.49C526.98,326.46,524.08,320.64,523.05,320.28z"/>
		</g>
		<path class="st22" d="M572.33,304.01c0,0-25.32,11.75-27.2,12.13s-25.25,0.88-26.38,1.63s-3.75,13.13-1.88,21.63
			c22.75,5.88,33.75,7.63,48.25,4.38s25.88-20.18,24.75-28.34C588.76,307.26,578.27,300.13,572.33,304.01z"/>
		<path class="st8" d="M605.8,301.57c-1.94,6.11-9.9,11.06-17.77,11.06c-7.87,0-12.67-4.95-10.73-11.06
			c1.95-6.11,9.9-11.06,17.77-11.06C602.94,290.51,607.75,295.46,605.8,301.57z"/>
		<path class="st23" d="M634.8,376.97c13.33-7.17,28.5-17,35.67-25.5c7.17-8.5,14.17-17,21.5-11c7.33,6,1.33,20.5-10.67,30.17
			s-35,17.83-44.67,19.5L634.8,376.97z"/>
		<path class="st22" d="M537.49,430.38c0,0-7.6,8.19-8.59,9.1c-0.99,0.91-1.18,3.41,1.4,4.5c2.58,1.1,15.91,1.54,20.41,1.21
			c4.51-0.33,7.78-2.28,7.97-3.71c0.19-1.43,0.94-11.55,0.94-11.55s-5.11-6.75-13.21-6.18
			C539.84,424.23,537.49,430.38,537.49,430.38z"/>
		<path class="st22" d="M647.73,439.48c-0.8-0.91-6.64-9.1-6.64-9.1s-1.03-6.16-7.5-6.62c-7.99-0.57-14.54,6.18-14.54,6.18
			s-1.42,10.12-1.53,11.55c-0.11,1.43,2.74,3.38,7.18,3.71c4.44,0.33,17.86-0.12,20.67-1.21
			C648.18,442.89,648.53,440.39,647.73,439.48z"/>
		<g>
			<path class="st23" d="M563.21,364.3c0,0-6.83,6-12.17,15.92c-4.67,6.83-6.75,14.58-11.08,26.67c-7.5,14.67-8.42,22.25-8.58,23.25
				s0.42,2.67,3.17,3c2.75,0.33,21.33,2.83,23.42,2.83c2.08,0,3.92-0.5,5.25-1.5c1.33-1,20.5-15.75,32.25-19.33
				c6.83,3.17,22.42,9.67,22.42,9.67s-0.92,6-1,6.92c-0.08,0.92-0.17,3.17,3.83,3.33s21.92,0.5,23.92,0.42c2-0.08,3.33-1.83,4-3.08
				c0.67-1.25,5.25-12.17,6.17-15.33c0.92-3.17,2.58-7.5,1.75-10.83c-0.83-3.33-6.62-23.32-6.62-23.32s-3.13-11.27-10.63-18.6
				H563.21z"/>
			<g>
				<path class="st7" d="M594.68,415.76c0,0-0.17-0.23-0.46-0.63c-0.29-0.4-0.7-0.98-1.2-1.68c-0.49-0.69-1.04-1.52-1.64-2.39
					c-0.59-0.88-1.19-1.84-1.81-2.79c-0.58-0.97-1.18-1.93-1.7-2.85c-0.51-0.93-0.99-1.8-1.39-2.55c-0.74-1.54-1.23-2.56-1.23-2.56
					c-0.1-0.2-0.01-0.45,0.19-0.55c0.2-0.09,0.43-0.02,0.53,0.17l0.01,0.03c0,0,0.55,0.97,1.36,2.42c0.44,0.71,0.97,1.53,1.53,2.41
					c0.58,0.87,1.23,1.78,1.86,2.7c0.67,0.89,1.32,1.8,1.96,2.63c0.64,0.83,1.23,1.6,1.77,2.25c0.53,0.64,0.97,1.18,1.27,1.56
					c0.31,0.37,0.49,0.59,0.49,0.59l0.01,0.01c0.36,0.42,0.3,1.05-0.12,1.41c-0.42,0.36-1.05,0.3-1.41-0.12
					C594.71,415.79,594.7,415.77,594.68,415.76z"/>
			</g>
			<g>
				<path class="st7" d="M593.61,416.68c0,0-0.23-0.06-0.63-0.15c-0.41-0.1-0.98-0.26-1.66-0.45c-0.68-0.19-1.46-0.45-2.29-0.73
					c-0.82-0.31-1.72-0.59-2.58-0.96c-0.86-0.36-1.74-0.7-2.52-1.09c-0.79-0.39-1.54-0.7-2.15-1.06c-1.22-0.68-2.04-1.14-2.04-1.14
					c-0.21-0.12-0.29-0.38-0.17-0.59c0.11-0.2,0.36-0.28,0.56-0.19l0.03,0.01c0,0,0.83,0.38,2.07,0.96
					c0.61,0.31,1.38,0.55,2.16,0.87c0.79,0.33,1.66,0.59,2.53,0.87c0.86,0.3,1.75,0.5,2.56,0.74c0.83,0.2,1.6,0.39,2.26,0.53
					c0.67,0.14,1.22,0.25,1.6,0.31c0.39,0.06,0.61,0.1,0.61,0.1l0.03,0c0.55,0.09,0.92,0.6,0.83,1.15c-0.09,0.55-0.6,0.92-1.15,0.83
					C593.66,416.69,593.63,416.69,593.61,416.68z"/>
			</g>
			<g>
				<path class="st7" d="M617.09,424.18c0,0,0.05-0.06,0.16-0.18c0.11-0.12,0.26-0.3,0.46-0.52c0.39-0.44,0.97-1.05,1.69-1.74
					c1.43-1.39,3.45-3.13,5.67-4.59c0.55-0.37,1.11-0.73,1.68-1.05c0.56-0.34,1.12-0.65,1.68-0.93c0.55-0.3,1.09-0.55,1.62-0.77
					c0.52-0.23,1.01-0.45,1.49-0.61c0.47-0.17,0.9-0.32,1.28-0.46c0.39-0.11,0.73-0.2,1.01-0.28c0.56-0.15,0.88-0.24,0.88-0.24
					c0.22-0.06,0.45,0.07,0.51,0.29c0.06,0.21-0.06,0.43-0.26,0.5l-0.03,0.01c0,0-0.3,0.1-0.83,0.28c-0.26,0.09-0.59,0.2-0.96,0.32
					c-0.36,0.15-0.76,0.32-1.2,0.51c-0.45,0.17-0.91,0.41-1.4,0.66c-0.49,0.24-1,0.51-1.51,0.83c-0.52,0.29-1.05,0.62-1.56,0.98
					c-0.53,0.34-1.04,0.72-1.55,1.1c-2.05,1.52-3.9,3.3-5.19,4.71c-0.65,0.7-1.16,1.31-1.5,1.74c-0.17,0.21-0.3,0.38-0.39,0.49
					c-0.09,0.12-0.13,0.18-0.13,0.18l-0.01,0.02c-0.33,0.44-0.96,0.53-1.4,0.2c-0.44-0.33-0.53-0.96-0.2-1.4
					C617.07,424.21,617.08,424.2,617.09,424.18z"/>
			</g>
			<g>
				<path class="st7" d="M622.85,412.91c0,0-0.11,0.1-0.26,0.26c-0.16,0.15-0.38,0.43-0.64,0.73c-0.24,0.34-0.54,0.7-0.8,1.14
					c-0.27,0.43-0.56,0.9-0.79,1.39c-0.12,0.24-0.25,0.49-0.37,0.72c-0.1,0.25-0.2,0.5-0.29,0.73c-0.2,0.47-0.37,0.91-0.47,1.31
					c-0.23,0.78-0.39,1.3-0.39,1.3l-0.03,0.09c-0.16,0.53-0.72,0.83-1.25,0.68c-0.53-0.16-0.83-0.72-0.67-1.25
					c0.01-0.04,0.02-0.07,0.04-0.11c0,0,0.23-0.55,0.59-1.37c0.16-0.42,0.41-0.87,0.68-1.36c0.13-0.24,0.27-0.5,0.41-0.75
					c0.16-0.24,0.32-0.49,0.49-0.74c0.31-0.5,0.68-0.97,1.03-1.4c0.33-0.44,0.71-0.8,1.01-1.13c0.33-0.31,0.59-0.56,0.8-0.73
					c0.21-0.18,0.32-0.25,0.32-0.25l0.03-0.02c0.22-0.15,0.51-0.09,0.66,0.13C623.07,412.49,623.03,412.76,622.85,412.91z"/>
			</g>
		</g>
		<g>
			<path class="st22" d="M587.31,308.13c0,0-7.76-12.17-9.51-12.67s-5.08,0.42-6.5,3.75c-2.24,0.96-2.25,4-2.08,4.75
				c0.17,0.75,1.21,1.57,1.21,1.57s-9.46,16.18-12.87,36.68c0,0-4.92,7.58-6,22.5c-2.33,4.5-2.83,10-0.5,15.5
				c15.83,7,46.58,10.92,70.25,8.33c14.25-0.75,29.42-5.25,29.5-6.25c0.08-1-0.17-21.67-6.17-37c1.17-12.33-4-31.7-7-39.77
				C637.63,305.53,616.82,300.97,587.31,308.13z"/>
			<g>
				<path class="st7" d="M613.24,366.83l1.02,1.92c0.18,0.3,0.37,0.57,0.55,0.86l0.55,0.85l0.06,0.1c0.04,0.06,0.07,0.13,0.09,0.2
					l0,0l0.18,1.05l0.09,1c0.04,0.66,0.07,1.31,0.08,1.96c0.02,1.3,0,2.58-0.06,3.86c-0.01,0.28-0.25,0.49-0.52,0.48
					c-0.25-0.01-0.46-0.21-0.48-0.46v-0.01c-0.11-1.25-0.25-2.52-0.44-3.76c-0.09-0.62-0.2-1.24-0.32-1.84l-0.2-0.89l-0.25-0.81l0,0
					l0.15,0.3l-0.63-0.97c-0.21-0.32-0.43-0.65-0.62-0.97l-1.02-1.92l0,0c-0.26-0.49-0.07-1.09,0.42-1.35
					C612.38,366.16,612.98,366.35,613.24,366.83z"/>
			</g>
			<path class="st5" d="M557.55,342.22c0,0,2.08-1.83,6.83-1.58s32.82,1.42,35.79,1.71c2.96,0.29,5.96,1.95,6.55,5.45
				c0.49,2.92,2.3,12.6,5.64,19.51"/>
			<g>
				<path class="st7" d="M570.85,304.63l8.28,4.49l0.01,0c0.28,0.15,0.38,0.5,0.23,0.78c-0.14,0.26-0.46,0.37-0.73,0.25l-8.64-3.71
					l-0.02-0.01c-0.51-0.22-0.74-0.81-0.52-1.32c0.22-0.51,0.81-0.74,1.32-0.52C570.79,304.6,570.82,304.61,570.85,304.63z"/>
			</g>
		</g>
		<g>
			<g>
				<g>
					<path class="st9" d="M535.24,255.86c-1.15,8.25-1.13,16.45,1.69,21.82c9.12,17.36,41.03,26.15,68.44,22.12
						c19.95-2.93,47.02-19.37,51.97-30.38c8.78-7.86,21.34-46.26,6.18-76.04c-15.16-29.78-46.04-38.21-84.21-29.74
						c-38.17,8.47-48.62,25.67-50.86,49.41C526.51,233.63,534.64,251.73,535.24,255.86z"/>
					<g>
						<path class="st10" d="M622.41,243.54c-10.08,1.48-17.36,8.69-16.27,16.1c1.09,7.41,10.14,12.22,20.21,10.74
							c10.07-1.48,17.36-8.69,16.27-16.1C641.54,246.87,632.49,242.06,622.41,243.54z"/>
						<path class="st10" d="M561.4,266.21c-1.09-7.41-10.14-12.22-20.21-10.74c-2.2,0.32-4.25,0.93-6.12,1.74
							c-0.96,7.79-0.8,15.39,1.86,20.46c0.89,1.7,2.01,3.31,3.32,4.85c1.58,0.08,3.21,0.03,4.88-0.22
							C555.21,280.82,562.49,273.62,561.4,266.21z"/>
					</g>
					<path class="st11" d="M535.24,255.86c-1.15,8.25-1.13,16.45,1.69,21.82c9.12,17.36,41.03,26.15,68.44,22.12
						c19.95-2.93,47.02-19.37,51.97-30.38c8.78-7.86,21.34-46.26,6.18-76.04c-15.16-29.78-46.04-38.21-84.21-29.74
						c-38.17,8.47-48.62,25.67-50.86,49.41C526.51,233.63,534.64,251.73,535.24,255.86z"/>
				</g>
				<g>
					<path class="st24" d="M532.71,174.3c0,0,18.33-27.17,61.83-27.33c43.5-0.17,70.33,20,80,34.33
						c9.67,14.33,19.83,38.33,17.5,38.33s-11.67-1.67-11.67-1.67s-1,21.56-7.17,28.95l-16.07-2.15c0,0-11.77-31.63-42.43-45.46
						C584.04,185.47,532.71,174.3,532.71,174.3z"/>
					<path class="st25" d="M645.03,204.35c-5.38,0.74-9.86,2.7-13.58,5.46c18.3,15.13,25.69,34.96,25.69,34.96l16.07,2.15
						c6.17-7.39,7.17-28.95,7.17-28.95s9.33,1.67,11.67,1.67c0.61,0,0.36-1.65-0.51-4.33C682.16,209.42,665.3,201.58,645.03,204.35z
						"/>
					<path class="st5" d="M532.71,174.3c0,0,18.33-27.17,61.83-27.33c43.5-0.17,70.33,20,80,34.33
						c9.67,14.33,19.83,38.33,17.5,38.33s-11.67-1.67-11.67-1.67s-1,21.56-7.17,28.95l-16.07-2.15c0,0-11.77-31.63-42.43-45.46
						C584.04,185.47,532.71,174.3,532.71,174.3z"/>
				</g>
				<g>
					<path class="st9" d="M672.74,237.34c-3.35-2.75-11.15-1.96-15.42,4.22l-1.55,27.71c7.46,1.75,16.18-2.95,19.59-11.98
						C679.09,247.43,677.12,240.93,672.74,237.34z"/>
					<path class="st5" d="M668.66,245.21c0,0-5.45,1.62-7.18,10.47c2.67-3.36,7.49-2.74,8.69-0.2"/>
					<path class="st11" d="M657.32,241.57c4.27-6.19,12.08-6.97,15.42-4.22c4.38,3.59,6.35,10.08,2.62,19.96
						c-3.41,9.03-12.13,13.72-19.59,11.98"/>
				</g>
				<path class="st12" d="M570.96,262.59c0,0-2.78,3.06,1.62,5.07"/>
				<g>
					<g>
						<path class="st13" d="M617.45,253.83c0,0,0.12-0.13,0.38-0.34c0.24-0.22,0.61-0.49,1.04-0.83c0.46-0.3,0.97-0.7,1.56-1.03
							c0.59-0.35,1.22-0.73,1.88-1.03c0.33-0.16,0.66-0.33,0.98-0.49c0.33-0.14,0.66-0.27,0.98-0.4c0.32-0.13,0.63-0.25,0.92-0.37
							c0.29-0.12,0.58-0.19,0.84-0.28c1.05-0.33,1.76-0.55,1.76-0.55c0.4-0.12,0.82,0.1,0.94,0.49c0.12,0.4-0.1,0.82-0.49,0.94
							c-0.02,0.01-0.04,0.01-0.06,0.02l-0.06,0.01c0,0-0.68,0.16-1.71,0.39c-0.25,0.06-0.54,0.11-0.83,0.2
							c-0.29,0.09-0.59,0.19-0.91,0.28c-0.32,0.1-0.64,0.2-0.97,0.3c-0.32,0.13-0.65,0.26-0.98,0.39c-0.66,0.24-1.3,0.55-1.89,0.85
							c-0.6,0.28-1.12,0.61-1.59,0.87c-0.44,0.29-0.82,0.52-1.06,0.71c-0.25,0.17-0.39,0.29-0.39,0.29c-0.12,0.1-0.3,0.09-0.4-0.03
							c-0.1-0.11-0.09-0.28,0.01-0.38L617.45,253.83z"/>
					</g>
					<g>
						<path class="st13" d="M621.24,255.07c0,0,0.1-0.07,0.27-0.2c0.17-0.13,0.43-0.3,0.73-0.5c0.31-0.19,0.67-0.42,1.08-0.64
							c0.4-0.21,0.83-0.45,1.28-0.64c0.44-0.21,0.89-0.41,1.33-0.56c0.43-0.16,0.83-0.33,1.19-0.42c0.71-0.21,1.19-0.35,1.19-0.35
							c0.4-0.12,0.82,0.11,0.93,0.51c0.12,0.4-0.11,0.82-0.51,0.93c-0.03,0.01-0.06,0.01-0.08,0.02l-0.06,0.01
							c0,0-0.45,0.07-1.14,0.19c-0.35,0.04-0.73,0.15-1.16,0.25c-0.43,0.09-0.87,0.23-1.31,0.37c-0.45,0.13-0.88,0.31-1.29,0.46
							c-0.41,0.16-0.78,0.33-1.1,0.48c-0.31,0.16-0.58,0.29-0.75,0.39c-0.18,0.1-0.28,0.16-0.28,0.16l-0.01,0.01
							c-0.13,0.08-0.31,0.03-0.39-0.1C621.09,255.32,621.12,255.16,621.24,255.07z"/>
					</g>
					<g>
						<path class="st13" d="M625.07,256.31c0,0,0.21-0.11,0.55-0.26c0.34-0.16,0.8-0.35,1.28-0.5c0.24-0.08,0.47-0.18,0.71-0.23
							c0.23-0.06,0.45-0.11,0.64-0.15c0.38-0.09,0.64-0.15,0.64-0.15c0.41-0.09,0.82,0.16,0.91,0.57c0.09,0.41-0.16,0.82-0.57,0.91
							c-0.06,0.01-0.12,0.02-0.17,0.02l-0.1,0c0,0-0.22,0-0.56-0.01c-0.17,0-0.37,0-0.58-0.01c-0.22-0.01-0.45,0.04-0.68,0.05
							c-0.47,0.04-0.93,0.1-1.28,0.17c-0.35,0.05-0.59,0.12-0.59,0.12c-0.15,0.04-0.31-0.05-0.35-0.2
							c-0.03-0.13,0.03-0.26,0.14-0.32L625.07,256.31z"/>
					</g>
				</g>
				<g>
					<g>
						<path class="st13" d="M547.84,264.49c0,0-0.1-0.08-0.27-0.17c-0.16-0.11-0.42-0.24-0.72-0.4c-0.15-0.09-0.33-0.15-0.51-0.23
							c-0.18-0.07-0.37-0.17-0.57-0.24c-0.41-0.13-0.83-0.3-1.28-0.38c-0.22-0.05-0.44-0.1-0.66-0.15
							c-0.22-0.05-0.44-0.05-0.65-0.08c-0.42-0.04-0.81-0.11-1.15-0.08c-0.67,0.01-1.11,0.02-1.11,0.02l-0.09,0
							c-0.41,0.01-0.76-0.32-0.77-0.74c-0.01-0.42,0.32-0.76,0.74-0.77c0.03,0,0.06,0,0.09,0c0,0,0.5,0.05,1.25,0.13
							c0.38,0.02,0.8,0.15,1.26,0.25c0.23,0.06,0.46,0.09,0.7,0.18c0.23,0.08,0.46,0.17,0.7,0.25c0.47,0.15,0.91,0.39,1.33,0.58
							c0.21,0.09,0.39,0.22,0.58,0.33c0.18,0.11,0.36,0.2,0.51,0.31c0.3,0.21,0.55,0.38,0.73,0.53c0.18,0.14,0.26,0.21,0.26,0.21
							l0.02,0.02c0.11,0.11,0.11,0.29,0,0.4C548.11,264.56,547.95,264.57,547.84,264.49z"/>
					</g>
					<g>
						<path class="st13" d="M545.98,266.61c0,0-0.07-0.04-0.19-0.08c-0.11-0.05-0.29-0.11-0.5-0.18c-0.42-0.14-1-0.29-1.58-0.35
							c-0.29-0.03-0.58-0.07-0.85-0.06c-0.27,0.01-0.52-0.02-0.73,0.02c-0.42,0.05-0.7,0.08-0.7,0.08l-0.08,0.01
							c-0.41,0.05-0.79-0.25-0.84-0.66c-0.05-0.41,0.25-0.79,0.66-0.84c0.05-0.01,0.1-0.01,0.14,0c0,0,0.34,0.02,0.84,0.06
							c0.25,0,0.54,0.08,0.84,0.14c0.31,0.05,0.62,0.15,0.93,0.25c0.63,0.2,1.21,0.47,1.64,0.71c0.21,0.12,0.38,0.22,0.5,0.31
							c0.12,0.08,0.18,0.12,0.18,0.12c0.13,0.09,0.16,0.26,0.08,0.39C546.26,266.63,546.1,266.67,545.98,266.61z"/>
					</g>
					<g>
						<path class="st13" d="M544.19,268.74c0,0-0.16,0-0.37,0.03c-0.21,0.02-0.49,0.06-0.76,0.14c-0.13,0.04-0.27,0.05-0.38,0.1
							c-0.11,0.05-0.21,0.1-0.3,0.14c-0.17,0.07-0.28,0.12-0.28,0.12l-0.12,0.05c-0.39,0.17-0.85,0-1.02-0.39
							c-0.17-0.39,0-0.85,0.39-1.02c0.09-0.04,0.19-0.06,0.28-0.07c0,0,0.18-0.01,0.45-0.02c0.13,0,0.29-0.01,0.45-0.01
							c0.16-0.01,0.32,0.04,0.49,0.06c0.33,0.04,0.65,0.12,0.88,0.19c0.24,0.06,0.37,0.12,0.37,0.12l0.04,0.02
							c0.14,0.07,0.2,0.23,0.14,0.38C544.41,268.68,544.3,268.75,544.19,268.74z"/>
					</g>
				</g>
				<path class="st7" d="M591.48,236.95c-1.16,0.74-1.93-6.4-0.59-8.07c3.1-3.85,11.93-6.83,11.81-5.89
					C602.58,223.94,597.02,233.4,591.48,236.95z"/>
				<path class="st7" d="M560.85,239.96c1.01,0.39,0.84-6.56-0.42-7.77c-2.93-2.81-10.38-3.24-10.17-2.39
					C550.45,230.66,555.98,238.09,560.85,239.96z"/>
				<g>
					<path class="st0" d="M546.2,236.12c4.84-1.02,8.91,2.56,11.11,4.86s4.29,6.84,3.65,13.58c-2.13,4.75-9.73,6.78-14.93,6.46
						c-5.2-0.32-8.15-5.59-9.04-9.6C536.1,247.42,536.7,238.12,546.2,236.12z"/>
					<path class="st7" d="M562.06,249.84c-1.29-3.97-6.83-13.36-15.2-12.31c-8.37,1.05-10.96,8.75-9.55,14.84
						c-1.59-0.19-3.71-2.21-3.71-2.21s0.3-11.78,9.52-14.71C553.19,232.25,560.1,239.56,562.06,249.84z"/>
					<g>
						<path class="st24" d="M537.31,249.65c0.76,6.43,5.27,11.18,10.09,10.62c4.82-0.57,8.11-6.24,7.35-12.67
							c-0.76-6.43-5.27-11.18-10.09-10.61C539.84,237.55,536.55,243.22,537.31,249.65z"/>
						<path class="st25" d="M537.21,247.26c0.2-5.39,3.24-9.78,7.44-10.27c4.82-0.57,9.33,4.18,10.09,10.61c0,0.04,0,0.07,0.01,0.1
							C551.56,246.63,544.6,244.94,537.21,247.26z"/>
						<path class="st14" d="M537.31,249.65c0.76,6.43,5.27,11.18,10.09,10.62c4.82-0.57,8.11-6.24,7.35-12.67
							c-0.76-6.43-5.27-11.18-10.09-10.61C539.84,237.55,536.55,243.22,537.31,249.65z"/>
					</g>
					<path class="st26" d="M540.96,249.22c0.33,2.82,2.31,4.9,4.42,4.65c2.11-0.25,3.55-2.73,3.22-5.55
						c-0.33-2.82-2.31-4.9-4.42-4.65C542.07,243.92,540.63,246.4,540.96,249.22z"/>
					<path class="st0" d="M557.29,247.3c-2.27-0.85-7.89-0.19-7.91,0.93c-0.03,1.12,4.58,4.16,7.18,4.33
						C559.16,252.73,559.37,248.08,557.29,247.3z"/>
					<path class="st0" d="M539.19,250.92c0.46-1.11,2.71-1.58,2.89-1.13c0.18,0.45-1.38,3.28-1.94,3.31
						C539.58,253.14,538.84,251.75,539.19,250.92z"/>
				</g>
				<g>
					<path class="st0" d="M628.42,244.64c-3.49,3.66-11.85,9.34-18.78,9.87c-6.92,0.53-9.48-2.41-9.48-2.41s-3.9-8.55-2.06-14.07
						c1.84-5.52,7.81-12.6,18.73-10.3C627.76,230.04,629.39,239.61,628.42,244.64z"/>
					<g>
						<g>
							<path class="st24" d="M599.11,243.09c0.76,6.43,5.65,11.14,10.92,10.52c5.27-0.62,8.94-6.34,8.18-12.77
								c-0.76-6.43-5.65-11.14-10.92-10.52C602.01,230.94,598.35,236.66,599.11,243.09z"/>
							<path class="st25" d="M599.03,240.69c0.27-5.4,3.65-9.83,8.26-10.37c5.27-0.62,10.16,4.09,10.92,10.52
								c0,0.04,0,0.07,0.01,0.1C614.73,239.9,607.14,238.28,599.03,240.69z"/>
							<path class="st14" d="M599.11,243.09c0.76,6.43,5.65,11.14,10.92,10.52c5.27-0.62,8.94-6.34,8.18-12.77
								c-0.76-6.43-5.65-11.14-10.92-10.52C602.01,230.94,598.35,236.66,599.11,243.09z"/>
						</g>
						<path class="st26" d="M603.11,242.62c0.33,2.82,2.47,4.88,4.79,4.61c2.31-0.27,3.92-2.78,3.59-5.6
							c-0.33-2.82-2.47-4.88-4.79-4.61C604.38,237.29,602.78,239.8,603.11,242.62z"/>
						<path class="st0" d="M621,240.51c-2.47-0.83-8.63-0.1-8.67,1.02c-0.04,1.12,4.97,4.12,7.81,4.25
							C622.98,245.92,623.26,241.27,621,240.51z"/>
						<path class="st0" d="M601.15,244.34c0.51-1.12,2.98-1.61,3.17-1.16c0.19,0.45-1.54,3.3-2.16,3.34
							C601.55,246.56,600.77,245.17,601.15,244.34z"/>
					</g>
					<path class="st7" d="M597.47,248.66c0,0,0.07-16.16,11.28-19.33c11.21-3.16,19.44,6.86,19.67,15.31
						c2.87-1.3,5.85-5.23,5.85-5.23s-7.92-15.16-20.63-14.3C600.39,226,594.68,237.76,597.47,248.66z"/>
				</g>
			</g>
			<g>
				<path class="st15" d="M576.95,276.22c2.37-1,9.37,7.44,9.68,9.63s-1.43,3.13-4.84,3.13s-7.41-1-7.6-3.13
					S575.79,276.71,576.95,276.22z"/>
				<path class="st16" d="M581.79,288.97c-2.65,0-5.64-0.61-6.94-1.87c1.95-1.77,5.32-4.28,9.55-5.08c1.22,1.59,2.13,3.08,2.23,3.83
					C586.95,288.04,585.2,288.97,581.79,288.97z"/>
				<path class="st17" d="M574.85,287.1c1.95-1.77,5.32-4.28,9.55-5.08"/>
				<g>
					<path class="st0" d="M575.28,279.68c0.53-1.76,1.16-3.24,1.67-3.45c1.17-0.49,3.48,1.32,5.54,3.55
						C579.76,280.04,577.14,279.88,575.28,279.68z"/>
					<path class="st17" d="M582.5,279.77c-2.73,0.26-5.35,0.11-7.21-0.09"/>
				</g>
				<path class="st17" d="M576.95,276.22c2.37-1,9.37,7.44,9.68,9.63s-1.43,3.13-4.84,3.13s-7.41-1-7.6-3.13
					S575.79,276.71,576.95,276.22z"/>
			</g>
			<g>
				<path class="st23" d="M554.75,169.76c-11.5-9.88-37.17-13.88-54.3-8.63c0,18.88,7.38,37.38,22,44.5L554.75,169.76z"/>
				<path class="st27" d="M543.44,177.2c-6.71-5.76-21.69-8.1-31.68-5.03c0,11.01,4.3,21.81,12.84,25.97L543.44,177.2z"/>
			</g>
			<g>
				<path class="st23" d="M653.93,193.29c7.8-13,7.43-38.97-0.62-54.97c-18.61,3.17-35.61,13.55-40.17,29.16L653.93,193.29z"/>
				<path class="st27" d="M644.69,183.39c4.55-7.58,4.34-22.74-0.36-32.08c-10.86,1.85-20.78,7.9-23.44,17.02L644.69,183.39z"/>
			</g>
			<g id="XMLID_1_">
				<g>
					<path class="st24" d="M643.16,234.69c0.78,6.43,0.96,11.29,0.79,11.82c-0.37,1.14-30.51-17.76-44.93-33
						c0,0,1.41,13.57,1.43,16.75c-27.87-11.11-37.63-38.13-37.63-38.13c-8.5,15.25-18.12,49.25-19.07,50.19
						c-0.95,0.94-3.93-7.19-5.17-12.06c0,0-8.13,32.25-9.13,34c-1,1.76-14.63-26.13-14.25-41.44c0,0-4.62,2.81-16.12-0.57
						c11.12-6,15-26.62,24.24-40.24c9.26-13.63,26.05-19,26.05-19s8.45-6.13,49.08-4.5c40.63,1.62,59.68,26.05,65.13,50.74
						c5.44,24.7-7.5,44.88-8.76,46.05C653.59,256.48,646.59,243.63,643.16,234.69z"/>
				</g>
				<g>
					<path class="st28" d="M641.44,172.92c-21.93,10.61-53.28,24.18-54.73,26.38c-1.55,2.35,42.78,9.64,74.86,2.69
						C657.93,191.16,651.45,180.81,641.44,172.92z"/>
					<path class="st28" d="M517.37,192.85c-2.5,5.33-4.73,10.85-7.19,15.74c20.85,2.04,39.84-3.33,40.07-4.71
						C550.45,202.65,534.37,198.74,517.37,192.85z"/>
				</g>
				<g>
					<path class="st5" d="M643.16,234.69c-0.89-7.24-2.55-16.46-5.34-23.68"/>
					<path class="st5" d="M549.38,163.01c0,0-16.79,5.37-26.05,19c-9.24,13.62-13.12,34.24-24.24,40.24
						c11.5,3.38,16.12,0.57,16.12,0.57c-0.38,15.31,13.25,43.2,14.25,41.44c1-1.75,9.13-34,9.13-34c1.24,4.87,4.22,13,5.17,12.06
						c0.95-0.94,10.57-34.94,19.07-50.19c0,0,9.76,27.02,37.63,38.13c-0.02-3.18-1.43-16.75-1.43-16.75
						c14.42,15.24,44.56,34.14,44.93,33c0.17-0.53-0.01-5.39-0.79-11.82c3.42,8.94,10.42,21.79,11.66,20.61
						c1.26-1.17,14.2-21.35,8.76-46.05c-5.17-23.44-22.6-46.64-59.12-50.32"/>
				</g>
			</g>
			<g>
				<path class="st24" d="M530.04,132.97c5.67,22.17,14,29.17,27.17,34.33l6.17-2.83C552.54,141.63,530.04,132.97,530.04,132.97z"/>
				<path class="st5" d="M563.37,164.47c-10.83-22.83-33.33-31.5-33.33-31.5c5.67,22.17,14,29.17,27.17,34.33"/>
			</g>
		</g>
		<g>
			<path class="st29" d="M581.72,312.63c6.08-10.25,20.03-14.73,20.03-14.73c3.47-4.36,16.8-12.25,26.55-10.8
				c3.33-0.55,8.5,0.2,8.83,1.2c0.33,1,0.33,4.67,1.5,6c1.17,1.33,2.17,3.5,1.67,6s-3.33,4.75-3.33,4.75s-29.67,2-41.33,6.83
				C589.97,314.97,581.22,317.63,581.72,312.63z"/>
			<g>
				<path class="st7" d="M631.22,306.53c0,0-1.69,0.14-4.24,0.34c-1.27,0.09-2.75,0.24-4.33,0.4c-1.58,0.17-3.27,0.3-4.95,0.52
					c-1.68,0.22-3.36,0.43-4.94,0.64c-1.58,0.17-3.03,0.47-4.29,0.67c-2.5,0.43-4.17,0.72-4.17,0.72l-0.03,0
					c-0.26,0.04-0.5-0.13-0.54-0.38c-0.04-0.25,0.12-0.49,0.36-0.54c0,0,1.67-0.35,4.17-0.88c1.25-0.25,2.71-0.61,4.29-0.85
					c1.58-0.27,3.26-0.55,4.94-0.83c1.68-0.29,3.38-0.49,4.96-0.72c1.58-0.22,3.06-0.44,4.33-0.58c2.53-0.3,4.22-0.51,4.22-0.51
					c0.55-0.07,1.05,0.33,1.11,0.87c0.07,0.55-0.33,1.05-0.87,1.11C631.24,306.52,631.23,306.53,631.22,306.53z"/>
			</g>
			<path class="st5" d="M581.72,312.63c6.08-10.25,20.03-14.73,20.03-14.73c3.47-4.36,16.8-12.25,26.55-10.8
				c3.33-0.55,8.5,0.2,8.83,1.2c0.33,1,0.33,4.67,1.5,6c1.17,1.33,2.17,3.5,1.67,6s-3.33,4.75-3.33,4.75s-2.29,0.15-5.85,0.48"/>
		</g>
		<g>
			<path class="st8" d="M600.69,329.58c0,0-6.63-2.57-7.69-3.14s-3.06,1.65-1.88,3.83s2.5,3.4,2.5,3.4s-0.24,9.44,6.25,12.68
				L600.69,329.58z"/>
			<path class="st20" d="M607.63,329.63c0,0-7.69-9.75-8.88-10.94s-4.13-0.94-4,2.5s2.88,9.25,2.94,11.94s-0.75,8.88,0.63,11.63
				s8.5,4.44,9.81,2.63S609.76,333.07,607.63,329.63z"/>
			<g>
				<path class="st29" d="M653.05,336.05c-0.67-8.83-8.58-27.25-15.42-30.52l-8.61,4.52c-3.36,5.17-5.39,15.58-5.39,15.58
					s-11.5-0.33-17.4,0.67c-0.4,0.17-1.77,13.33-1.19,22.33c5.42,4.42,19.5,8.08,32.58,7.25
					C650.72,355.05,653.71,344.88,653.05,336.05z"/>
				<g>
					<path class="st7" d="M624.21,324.82c-0.02-0.01,0.28,0.21,0.7,0.57c0.42,0.37,1.01,0.89,1.66,1.58
						c0.66,0.67,1.38,1.5,2.09,2.43c0.71,0.93,1.42,1.96,2.05,3.03c0.33,0.52,0.6,1.09,0.89,1.62c0.29,0.54,0.51,1.1,0.76,1.62
						c0.25,0.52,0.42,1.06,0.62,1.55c0.2,0.49,0.34,0.98,0.47,1.42c0.13,0.44,0.28,0.84,0.36,1.21c0.08,0.37,0.16,0.69,0.22,0.95
						c0.12,0.53,0.19,0.83,0.19,0.83c0.05,0.23-0.09,0.46-0.32,0.51c-0.22,0.05-0.44-0.08-0.51-0.29l-0.01-0.03
						c0,0-0.09-0.29-0.23-0.79c-0.07-0.25-0.16-0.55-0.27-0.9c-0.1-0.35-0.26-0.73-0.41-1.15c-0.16-0.42-0.31-0.88-0.54-1.34
						c-0.22-0.46-0.41-0.97-0.68-1.45c-0.27-0.49-0.51-1.01-0.82-1.51c-0.31-0.49-0.59-1.02-0.94-1.49
						c-0.66-0.99-1.38-1.92-2.11-2.75c-0.72-0.84-1.45-1.57-2.09-2.16c-0.64-0.6-1.21-1.05-1.61-1.36
						c-0.41-0.31-0.61-0.44-0.63-0.45c-0.45-0.32-0.56-0.94-0.24-1.39C623.13,324.61,623.76,324.5,624.21,324.82z"/>
				</g>
				<g>
					<path class="st7" d="M624.58,323.66c0,0,0.19,0.04,0.52,0.11c0.35,0.07,0.83,0.18,1.39,0.34c0.57,0.13,1.21,0.37,1.9,0.59
						c0.34,0.11,0.69,0.27,1.04,0.4c0.35,0.15,0.71,0.27,1.06,0.44c0.69,0.37,1.4,0.66,2,1.06c0.3,0.2,0.6,0.39,0.88,0.57
						c0.27,0.19,0.55,0.33,0.76,0.53c0.87,0.75,1.45,1.26,1.45,1.26c0.1,0.08,0.11,0.23,0.02,0.33c-0.08,0.09-0.21,0.11-0.31,0.04
						l-0.03-0.02c0,0-0.61-0.41-1.53-1.02c-0.22-0.17-0.51-0.27-0.79-0.41c-0.28-0.14-0.58-0.28-0.89-0.43
						c-0.61-0.3-1.33-0.49-2.01-0.75c-0.34-0.12-0.71-0.19-1.05-0.29c-0.35-0.08-0.69-0.19-1.02-0.25
						c-0.67-0.12-1.29-0.27-1.84-0.32c-0.54-0.08-0.99-0.13-1.29-0.15c-0.3-0.03-0.5-0.04-0.5-0.04c-0.55-0.02-0.99-0.48-0.97-1.03
						c0.02-0.55,0.48-0.99,1.03-0.97c0.06,0,0.11,0.01,0.16,0.02L624.58,323.66z"/>
				</g>
				<path class="st5" d="M629.02,310.05c-3.36,5.17-5.39,15.58-5.39,15.58s-11.5-0.33-17.4,0.67c-0.4,0.17-1.77,13.33-1.19,22.33
					c5.42,4.42,19.5,8.08,32.58,7.25c13.08-0.83,16.08-11,15.42-19.83c-0.67-8.83-8.58-27.25-15.42-30.52c0,0-0.78-0.48-2.12-0.37"
					/>
			</g>
		</g>
	</g>
	<g>
		<path class="st30" d="M457.83,238.53c0,0,3.6-31.85-5.72-62.67c-12.71-42.01-50.76-47.56-72.89-47.56h-8.45
			c-22.13,0-60.18,5.55-72.89,47.56c-9.32,30.82-5.72,62.67-5.72,62.67c-3.94,17.19-5.27,35.88-3.44,35.95
			c1.83,0.07,10.17-4.83,10.17-4.83c4,12.4,14.46,28.23,23.64,33.23c2.02-3.17,2.74-8,2.74-8s18.23,18.51,49.68,18.51h0.09
			c31.45,0,49.68-18.51,49.68-18.51s0.71,4.83,2.74,8c9.19-5,19.64-20.83,23.64-33.23c0,0,8.33,4.9,10.17,4.83
			C463.1,274.41,461.77,255.71,457.83,238.53z"/>
		<g>
			<g>
				<path class="st31" d="M313.56,445.3c-1.83,0-4.97-0.58-4.61-3.83c0.36-3.25,0.69-14,12.28-15.17c11.58-1.17,17.5,0,19.92,2.83
					c2.42,2.83,3.5,10.08,3.75,11c0.25,0.92-0.67,5.17-3.83,5.17C337.89,445.3,313.56,445.3,313.56,445.3z"/>
				<path class="st31" d="M436.45,445.3c1.83,0,4.97-0.58,4.61-3.83c-0.36-3.25-0.69-14-12.28-15.17c-11.58-1.17-17.5,0-19.92,2.83
					c-2.42,2.83-3.5,10.08-3.75,11c-0.25,0.92,0.67,5.17,3.83,5.17C412.11,445.3,436.45,445.3,436.45,445.3z"/>
			</g>
			<path class="st32" d="M425.99,365.93c0,0,14.44,57.91,15.32,59.91s0.25,4-3,4.25s-31.88,3-33.63,3s-3.63-0.88-5-2.63
				S375,405.34,375,405.34s-23.3,23.38-24.68,25.13s-3.25,2.63-5,2.63s-30.38-2.75-33.63-3s-3.88-2.25-3-4.25
				s15.32-59.91,15.32-59.91H425.99z"/>
			<g>
				<path class="st7" d="M374.41,406.15l-11.21-8.85c-0.18-0.14-0.21-0.4-0.07-0.57c0.13-0.17,0.37-0.2,0.55-0.09l11.9,7.9
					c0.46,0.31,0.59,0.93,0.28,1.39c-0.31,0.46-0.93,0.59-1.39,0.28C374.46,406.19,374.43,406.17,374.41,406.15z"/>
			</g>
			<g>
				<path class="st7" d="M369.55,407.02l-10.35-2.11c-0.21-0.04-0.35-0.25-0.3-0.46c0.04-0.2,0.22-0.33,0.41-0.31l10.52,0.89
					c0.55,0.05,0.96,0.53,0.91,1.08c-0.05,0.55-0.53,0.96-1.08,0.91C369.63,407.03,369.59,407.03,369.55,407.02z"/>
			</g>
		</g>
		<path class="st31" d="M399.63,281.79c-15.77,6.53-33.49,6.53-49.27,0l-27.78,88.68c33.56,13.9,71.26,13.9,104.82,0L399.63,281.79z
			"/>
		<g>
			<path class="st8" d="M394.3,279.34c0,5.45-8.64,9.88-19.3,9.88c-10.66,0-19.3-4.42-19.3-9.88s8.64-9.88,19.3-9.88
				C385.66,269.47,394.3,273.89,394.3,279.34z"/>
			<g>
				<path class="st31" d="M345.13,169.66c4.47-35.87-12.53-86.2-51.69-101.37c-13.67,41.33,0.59,81.48,37.05,105.33
					C330.48,173.63,336.98,175.2,345.13,169.66z"/>
				<path class="st32" d="M333.49,154.24c2.17-17.36-6.06-41.72-25.02-49.06c-6.62,20.01,0.29,39.44,17.93,50.98
					C326.4,156.16,329.55,156.92,333.49,154.24z"/>
				<path class="st31" d="M404.87,169.66c-4.47-35.87,12.53-86.2,51.69-101.37c13.67,41.33-0.59,81.48-37.05,105.33
					C419.52,173.63,413.01,175.2,404.87,169.66z"/>
				<path class="st32" d="M416.51,154.24c-2.17-17.36,6.06-41.72,25.02-49.06c6.62,20.01-0.29,39.44-17.93,50.98
					C423.6,156.16,420.45,156.92,416.51,154.24z"/>
			</g>
			<g>
				<path class="st8" d="M312.56,229.22c-3.42-4.67-9.58-5.25-12.67,0.17c-5.89,10.34,2,30,16.33,28.08L312.56,229.22z"/>
				<path class="st8" d="M437.43,229.22c3.42-4.67,9.58-5.25,12.67,0.17c5.89,10.34-2,30-16.33,28.08L437.43,229.22z"/>
			</g>
			<path class="st20" d="M375,282.8c16.55,0,51.65-4.16,59.55-19.33c6.33-12.17,7.33-34.33,8-43.67c0.67-9.33,2.67-45.5-15.33-58.17
				c-18-12.67-39.44-14.5-52.22-14.5c-12.78,0-34.22,1.83-52.22,14.5c-18,12.67-16,48.83-15.33,58.17c0.67,9.33,1.67,31.5,8,43.67
				C323.34,278.64,358.45,282.8,375,282.8L375,282.8z"/>
			<g>
				<path class="st10" d="M431.05,250.56c0,6.76-7.27,12.24-16.24,12.24c-8.97,0-16.24-5.48-16.24-12.24
					c0-6.76,7.27-12.24,16.24-12.24C423.78,238.32,431.05,243.8,431.05,250.56z"/>
				<path class="st10" d="M351.43,250.56c0,6.76-7.27,12.24-16.24,12.24c-8.97,0-16.24-5.48-16.24-12.24
					c0-6.76,7.27-12.24,16.24-12.24C344.16,238.32,351.43,243.8,351.43,250.56z"/>
			</g>
			<g>
				<g>
					<path class="st0" d="M325.32,230.88c1.88,5.25,6.54,12.67,16.83,12.67c8.42,0,13.38-5.21,13.38-5.21
						c0.63-3.29,1.04-9.41-2.25-14.67c-3.29-5.25-10.63-7.92-17.79-5.58C328.32,220.42,326.37,225.22,325.32,230.88z"/>
					<g>
						<g>
							<path class="st15" d="M331.27,231.94c0.25,6.05,5.16,10.75,10.97,10.51c5.8-0.24,10.3-5.35,10.05-11.39
								c-0.25-6.05-5.16-10.76-10.97-10.51C335.51,220.79,331.01,225.89,331.27,231.94z"/>
							<path class="st33" d="M331.39,229.7c0.78-5.02,4.85-8.94,9.92-9.15c5.81-0.24,10.72,4.46,10.97,10.51c0,0.03,0,0.06,0,0.1
								C348.58,229.96,340.44,227.96,331.39,229.7z"/>
							<path class="st14" d="M331.27,231.94c0.25,6.05,5.16,10.75,10.97,10.51c5.8-0.24,10.3-5.35,10.05-11.39
								c-0.25-6.05-5.16-10.76-10.97-10.51C335.51,220.79,331.01,225.89,331.27,231.94z"/>
						</g>
						<path class="st7" d="M337.17,231.75c0.11,2.65,2.27,4.71,4.81,4.61c2.54-0.11,4.52-2.34,4.4-4.99
							c-0.11-2.65-2.26-4.72-4.81-4.61C339.03,226.87,337.06,229.1,337.17,231.75z"/>
						<path class="st0" d="M329.48,231c2.62-0.93,9.39-0.64,9.54,0.4c0.15,1.04-5.05,4.16-8.13,4.47
							C327.8,236.18,327.09,231.86,329.48,231z"/>
						<path class="st0" d="M349.09,233.24c-0.66-1.01-3.39-1.31-3.56-0.88c-0.17,0.43,1.97,2.98,2.65,2.98
							C348.85,235.33,349.58,233.99,349.09,233.24z"/>
					</g>
					<path class="st7" d="M356.79,233.86c-0.84-6.86-6.77-15.07-15.14-15.2c-8.37-0.13-13.03,3.69-15.3,12.47
						c0.65,3.28,1.19,4.89,1.19,4.89s-3.86-1.55-5.99-5.68c1.6-4.19,6.43-15.1,19.82-14.69
						C353.34,216.04,357.32,227.1,356.79,233.86z"/>
					<path class="st7" d="M349.87,204.93c0,0-5.45,2.16-10.45,3.29s-11.38,1.81-11.38,1.81s10.91-3.53,14.38-4.88
						c4.76-1.85,10.44-4.88,10.44-4.88S352.37,203.47,349.87,204.93z"/>
				</g>
				<g>
					<path class="st0" d="M424.67,230.88c-1.88,5.25-6.54,12.67-16.83,12.67c-8.42,0-13.38-5.21-13.38-5.21
						c-0.63-3.29-1.04-9.41,2.25-14.67c3.3-5.25,10.63-7.92,17.79-5.58C421.67,220.42,423.63,225.22,424.67,230.88z"/>
					<g>
						<g>
							<path class="st15" d="M418.73,231.94c-0.25,6.05-5.16,10.75-10.97,10.51c-5.8-0.24-10.3-5.35-10.05-11.39
								c0.25-6.05,5.17-10.76,10.97-10.51C414.49,220.79,418.99,225.89,418.73,231.94z"/>
							<path class="st33" d="M418.61,229.7c-0.78-5.02-4.85-8.94-9.92-9.15c-5.8-0.24-10.72,4.46-10.97,10.51c0,0.03,0,0.06,0,0.1
								C401.42,229.96,409.55,227.96,418.61,229.7z"/>
							<path class="st14" d="M418.73,231.94c-0.25,6.05-5.16,10.75-10.97,10.51c-5.8-0.24-10.3-5.35-10.05-11.39
								c0.25-6.05,5.17-10.76,10.97-10.51C414.49,220.79,418.99,225.89,418.73,231.94z"/>
						</g>
						<path class="st7" d="M412.83,231.75c-0.11,2.65-2.27,4.71-4.81,4.61c-2.54-0.11-4.52-2.34-4.4-4.99
							c0.11-2.65,2.26-4.72,4.81-4.61C410.97,226.87,412.94,229.1,412.83,231.75z"/>
						<path class="st0" d="M396.61,232.93c2.49-1.23,9.25-1.74,9.52-0.72c0.27,1.02-4.52,4.72-7.55,5.39
							C395.55,238.27,394.33,234.06,396.61,232.93z"/>
						<path class="st0" d="M416.34,232.84c-0.78-0.92-3.52-0.9-3.64-0.46c-0.11,0.45,2.31,2.73,2.98,2.65
							C416.35,234.95,416.91,233.53,416.34,232.84z"/>
					</g>
					<path class="st7" d="M393.21,233.86c0.84-6.86,6.77-15.07,15.14-15.2c8.37-0.13,13.03,3.69,15.3,12.47
						c-0.65,3.28-1.19,4.89-1.19,4.89s3.86-1.55,5.99-5.68c-1.6-4.19-6.43-15.1-19.82-14.69
						C396.65,216.04,392.68,227.1,393.21,233.86z"/>
					<path class="st7" d="M400.12,204.93c0,0,5.45,2.16,10.45,3.29s11.38,1.81,11.38,1.81s-10.91-3.53-14.38-4.88
						c-4.76-1.85-10.44-4.88-10.44-4.88S397.63,203.47,400.12,204.93z"/>
				</g>
			</g>
			<g>
				<g>
					<g>
						<path class="st13" d="M402.74,250.36c0,0,0.47-0.9,1.11-1.73c0.16-0.21,0.34-0.41,0.51-0.6c0.19-0.18,0.37-0.35,0.52-0.5
							c0.38-0.27,0.63-0.44,0.63-0.44c0.45-0.32,1.08-0.21,1.4,0.24c0.32,0.45,0.21,1.08-0.24,1.4c-0.1,0.07-0.2,0.12-0.31,0.15
							l-0.09,0.03c0,0-0.18,0.05-0.45,0.12c-0.14,0.07-0.31,0.14-0.49,0.22c-0.18,0.1-0.37,0.22-0.57,0.34
							c-0.78,0.51-1.48,1.17-1.48,1.17c-0.13,0.13-0.35,0.12-0.47-0.01C402.7,250.65,402.68,250.49,402.74,250.36z"/>
					</g>
					<g>
						<path class="st13" d="M407.65,250.36c0,0,0.47-0.9,1.11-1.73c0.16-0.21,0.34-0.41,0.51-0.6c0.19-0.18,0.37-0.35,0.52-0.5
							c0.38-0.27,0.63-0.44,0.63-0.44c0.45-0.32,1.08-0.21,1.4,0.24c0.32,0.45,0.21,1.08-0.24,1.4c-0.1,0.07-0.2,0.12-0.31,0.15
							l-0.09,0.03c0,0-0.18,0.05-0.45,0.12c-0.14,0.07-0.31,0.14-0.49,0.22c-0.18,0.1-0.37,0.22-0.57,0.34
							c-0.78,0.51-1.48,1.17-1.48,1.17c-0.13,0.13-0.35,0.12-0.47-0.01C407.61,250.65,407.59,250.49,407.65,250.36z"/>
					</g>
					<g>
						<path class="st13" d="M412.56,250.36c0,0,0.47-0.9,1.11-1.73c0.16-0.21,0.34-0.41,0.51-0.6c0.19-0.18,0.37-0.35,0.52-0.5
							c0.38-0.27,0.63-0.44,0.63-0.44c0.45-0.32,1.08-0.21,1.4,0.24c0.32,0.45,0.21,1.08-0.24,1.4c-0.1,0.07-0.2,0.12-0.31,0.15
							l-0.09,0.03c0,0-0.18,0.05-0.45,0.12c-0.14,0.07-0.31,0.14-0.49,0.22c-0.18,0.1-0.37,0.22-0.57,0.34
							c-0.78,0.51-1.48,1.17-1.48,1.17c-0.13,0.13-0.35,0.12-0.47-0.01C412.51,250.65,412.5,250.49,412.56,250.36z"/>
					</g>
				</g>
				<g>
					<g>
						<path class="st13" d="M346.73,250.76c0,0-0.7-0.66-1.48-1.17c-0.19-0.12-0.39-0.23-0.57-0.34c-0.18-0.08-0.35-0.16-0.49-0.22
							c-0.27-0.07-0.45-0.12-0.45-0.12l-0.09-0.02c-0.54-0.14-0.85-0.7-0.71-1.23c0.14-0.54,0.7-0.85,1.23-0.71
							c0.12,0.03,0.22,0.08,0.32,0.15c0,0,0.25,0.18,0.63,0.44c0.15,0.15,0.33,0.32,0.52,0.5c0.17,0.19,0.34,0.4,0.51,0.6
							c0.64,0.83,1.11,1.73,1.11,1.73c0.09,0.16,0.02,0.37-0.14,0.45C346.98,250.88,346.83,250.85,346.73,250.76z"/>
					</g>
					<g>
						<path class="st13" d="M341.82,250.76c0,0-0.7-0.66-1.48-1.17c-0.19-0.12-0.39-0.23-0.57-0.34c-0.18-0.08-0.35-0.16-0.49-0.22
							c-0.27-0.07-0.45-0.12-0.45-0.12l-0.09-0.02c-0.54-0.14-0.85-0.7-0.71-1.23s0.7-0.85,1.23-0.71c0.12,0.03,0.22,0.08,0.32,0.15
							c0,0,0.25,0.18,0.63,0.44c0.15,0.15,0.33,0.32,0.52,0.5c0.17,0.19,0.34,0.4,0.51,0.6c0.64,0.83,1.11,1.73,1.11,1.73
							c0.08,0.16,0.02,0.37-0.14,0.45C342.07,250.88,341.92,250.85,341.82,250.76z"/>
					</g>
					<g>
						<path class="st13" d="M336.91,250.76c0,0-0.7-0.66-1.48-1.17c-0.19-0.12-0.39-0.23-0.57-0.34c-0.18-0.08-0.35-0.16-0.49-0.22
							c-0.27-0.07-0.45-0.12-0.45-0.12l-0.09-0.02c-0.54-0.14-0.85-0.7-0.71-1.23s0.7-0.85,1.23-0.71c0.12,0.03,0.22,0.08,0.32,0.15
							c0,0,0.25,0.18,0.63,0.44c0.15,0.15,0.33,0.32,0.52,0.5c0.17,0.19,0.34,0.4,0.51,0.6c0.64,0.83,1.11,1.73,1.11,1.73
							c0.08,0.16,0.02,0.37-0.14,0.45C337.17,250.88,337.01,250.85,336.91,250.76z"/>
					</g>
				</g>
			</g>
			<g>
				<path class="st34" d="M369.84,245.05c0,0,0.01,0.05,0.02,0.14c0.01,0.11,0.04,0.17,0.06,0.28c0.04,0.11,0.03,0.23,0.11,0.39
					c0.07,0.16,0.15,0.32,0.22,0.49c0.13,0.35,0.42,0.63,0.57,0.88c0.17,0.24,0.29,0.41,0.29,0.41l0.05,0.08
					c0.15,0.21,0.1,0.49-0.11,0.64c-0.16,0.12-0.38,0.11-0.53,0c0,0-0.18-0.13-0.45-0.33c-0.26-0.22-0.68-0.43-0.98-0.79
					c-0.16-0.17-0.32-0.35-0.48-0.51c-0.16-0.15-0.27-0.38-0.39-0.55c-0.11-0.17-0.21-0.34-0.24-0.41
					c-0.04-0.08-0.07-0.13-0.07-0.13c-0.26-0.5-0.06-1.11,0.44-1.37c0.5-0.26,1.11-0.06,1.37,0.44c0.05,0.1,0.08,0.2,0.1,0.3
					L369.84,245.05z"/>
			</g>
			<g>
				<path class="st15" d="M360.36,259.17c6.04-0.92,21.29-6.33,23.75-7.13c2.46-0.79,8.13-0.71,10.33,4.71
					c2.21,5.42-0.22,14.27-6.63,17.04c-5.58,2.42-16.52,3.24-22.33,0.54C359.65,271.63,357.28,265.84,360.36,259.17z"/>
				<path class="st16" d="M362.62,272.53c0.83,0.7,1.79,1.31,2.87,1.81c5.82,2.7,16.75,1.88,22.33-0.54
					c4.05-1.75,6.5-5.94,7.21-10.15C382.51,257.11,367.39,265.58,362.62,272.53z"/>
				<path class="st0" d="M362.52,258.75c7.25,4.3,22.1,1.06,27.5-6.45c-2.2-0.86-4.54-0.69-5.91-0.25
					C381.91,252.76,369.43,257.18,362.52,258.75z"/>
				<path class="st17" d="M395.03,263.65c-12.52-6.55-27.64,1.92-32.41,8.88"/>
				<path class="st17" d="M362.52,258.75c7.25,4.3,22.1,1.06,27.5-6.45"/>
				<path class="st17" d="M360.36,259.17c6.04-0.92,21.29-6.33,23.75-7.13c2.46-0.79,8.13-0.71,10.33,4.71
					c2.21,5.42-0.22,14.27-6.63,17.04c-5.58,2.42-16.52,3.24-22.33,0.54C359.65,271.63,357.28,265.84,360.36,259.17z"/>
			</g>
			<g id="XMLID_3_">
				<g>
					<path class="st35" d="M430.81,223.41c-7.38-5.06-12.62-8.82-22.66-19.94c0,0,6.35,14.62,4.67,14.75s-20.26-8.19-34-22.11
						c0,0,4.37,17.24,5.12,28.74c0,0,3.75,11.37,3.5,12.82c-0.25,1.45-20.38-10.2-35.15-26.82c-5.82-6.55-9.28-16.19-11.34-25.46
						c-2.25,14.9-1.63,32.7-3.01,33.08c-1.38,0.38-9.25-11.12-12.2-18.88c-3,5.63-6.51,19.5-7.63,32.5
						c1.12,8.74,8.75,15.38,8.75,15.38c-25.63,3.12-34.88-16.88-36.38-25.5s-0.5-24.88-0.5-24.88s-7.25-2.24-12.12-7.86
						c4.62-0.74,12.87-6.38,15.5-8.51c2.62-2.13,12.12-15,23.29-27.5c11.16-12.5,32.21-15.5,47.71-14.63
						c0.75-12.79,15.41-39.29,52.41-39.12c-7.79,9.14-23.3,28.16-39.42,38.14v0.01c15.5-0.88,41.39-0.26,55.99,15.6
						c11.35,12.33,20.66,25.37,23.29,27.5c2.62,2.13,10.87,7.77,15.5,8.51c-4.88,5.62-12.13,7.86-12.13,7.86s1,16.26-0.5,24.88
						s-10.75,28.62-36.37,25.5c0,0,7.62-6.64,8.75-15.38C431.63,229.21,431.27,226.28,430.81,223.41z"/>
				</g>
				<g>
					<path class="st36" d="M433.82,153.74c-21.58,11.21-45.72,17.57-43.68,19.98c2.08,2.46,36.01,7.72,62.06,1.97
						C447.92,170.41,441.33,161.95,433.82,153.74z"/>
					<path class="st36" d="M309.38,161.65c-5.19,6.19-9.63,11.8-12.63,15.38c18.86,3.85,36.49,3.95,38.26,2.51
						C336.88,178,324.08,171.39,309.38,161.65z"/>
				</g>
				<g>
					<path class="st5" d="M365.78,142.97c3.83-1.1,7.73-2.97,11.58-5.36c16.12-9.98,31.63-29,39.42-38.14
						c-37-0.17-51.66,26.33-52.41,39.12c-15.5-0.87-36.55,2.13-47.71,14.63c-11.17,12.5-20.67,25.37-23.29,27.5
						c-2.63,2.13-10.88,7.77-15.5,8.51c4.87,5.62,12.12,7.86,12.12,7.86s-1,16.26,0.5,24.88s10.75,28.62,36.38,25.5
						c0,0-7.63-6.64-8.75-15.38c1.12-13,4.63-26.87,7.63-32.5c2.95,7.76,10.82,19.26,12.2,18.88c1.38-0.38,0.76-18.18,3.01-33.08
						c0-0.01,0-0.01,0-0.02"/>
					<path class="st5" d="M377.36,137.62c15.5-0.88,41.39-0.26,55.99,15.6c11.35,12.33,20.66,25.37,23.29,27.5
						c2.62,2.13,10.87,7.77,15.5,8.51c-4.88,5.62-12.13,7.86-12.13,7.86s1,16.26-0.5,24.88s-10.75,28.62-36.37,25.5
						c0,0,7.62-6.64,8.75-15.38c-0.25-2.88-0.62-5.81-1.07-8.68c-1.59-10.07-4.23-19.44-6.56-23.82"/>
					<path class="st5" d="M339.97,180.41c0.29,1.63,0.61,3.3,0.99,4.97c2.06,9.27,5.52,18.91,11.34,25.46
						c14.77,16.62,34.9,28.27,35.15,26.82c0.25-1.45-3.5-12.82-3.5-12.82c-0.75-11.5-5.12-28.74-5.12-28.74
						c13.74,13.92,32.32,22.24,34,22.11s-4.67-14.75-4.67-14.75c10.04,11.12,15.28,14.88,22.66,19.94"/>
					<g>
						<path class="st7" d="M338.45,157.72c0,0,0.01,0.36,0.03,0.98c0.01,0.63,0.06,1.51,0.13,2.57c0.03,0.53,0.07,1.1,0.1,1.71
							c0.05,0.61,0.06,1.25,0.14,1.91c0.14,1.32,0.29,2.74,0.43,4.15c0.07,0.71,0.15,1.41,0.22,2.1c0.06,0.7,0.21,1.37,0.3,2.03
							c0.21,1.31,0.41,2.53,0.58,3.58c0.34,2.09,0.57,3.49,0.57,3.49l0.01,0.07c0.09,0.55-0.28,1.06-0.83,1.15
							c-0.54,0.09-1.06-0.28-1.15-0.83c0-0.01,0-0.03-0.01-0.04c0,0-0.17-1.43-0.42-3.57c-0.13-1.07-0.27-2.32-0.43-3.65
							c-0.07-0.67-0.19-1.35-0.22-2.06c-0.04-0.7-0.09-1.42-0.13-2.14c-0.09-1.43-0.17-2.86-0.25-4.2
							c-0.05-0.67-0.03-1.32-0.05-1.94c-0.01-0.62-0.02-1.2-0.03-1.74c-0.02-1.08-0.04-1.97-0.02-2.59
							c0.01-0.62,0.01-0.98,0.01-0.98c0-0.28,0.23-0.5,0.51-0.49C338.22,157.23,338.44,157.45,338.45,157.72z"/>
					</g>
					<g>
						<path class="st7" d="M369.21,175c0,0,0.45,1.38,1.25,3.41c0.38,1.02,0.87,2.2,1.4,3.45c0.5,1.27,1.16,2.56,1.75,3.88
							c0.3,0.66,0.66,1.29,0.98,1.92c0.33,0.63,0.65,1.25,0.96,1.85c0.7,1.15,1.36,2.22,1.92,3.13c1.28,1.69,2.13,2.81,2.13,2.81
							l0.08,0.1c0.33,0.44,0.25,1.07-0.19,1.4c-0.44,0.33-1.07,0.25-1.4-0.19c-0.01-0.01-0.01-0.02-0.02-0.03
							c0,0-0.87-1.24-2.14-3.11c-0.54-0.98-1.16-2.12-1.84-3.34c-0.29-0.63-0.59-1.28-0.9-1.94c-0.3-0.66-0.63-1.32-0.91-2.01
							c-0.54-1.37-1.14-2.72-1.59-4.02c-0.47-1.29-0.91-2.5-1.25-3.55c-0.7-2.09-1.1-3.5-1.1-3.5l0-0.01
							c-0.07-0.24,0.07-0.49,0.32-0.56C368.89,174.64,369.14,174.77,369.21,175z"/>
					</g>
				</g>
			</g>
			<path class="st31" d="M432.33,224.24c-1.29,0.93-3.08,0.65-4.02-0.64l0,0c-0.93-1.28-0.65-3.08,0.63-4.02l14.87-10.8
				c1.29-0.93,3.08-0.65,4.02,0.64l0,0c0.93,1.28,0.65,3.08-0.63,4.02L432.33,224.24z"/>
		</g>
		<g>
			<g>
				<path class="st37" d="M353.14,281.12l-12.11,4.43c-3.75,0.83-37,3.26-37,3.26l-0.33,26.99c0,0,12.33,6.08,26.75,7.67
					c-4.25,11.92-11.25,41.42-11.25,41.42c-1.42,2.42-3.17,7.58-2.33,8.75c0.83,1.17,7.67,4.92,16.33,7.5
					c8.67,2.58,11.17,2.33,11.58,0.58c0.42-1.75,13.4-71,14.33-76.19s0.88-11.69,0-15.5s-3.99-8.62-3.99-8.62L353.14,281.12z"/>
				<path class="st20" d="M298.8,291.59c0,0-9.69-9.62-11.19-10.47c-1.5-0.84-3.31-1.41-4,2.53s2.19,15.25,2.19,15.25
					s-3.5,1.25-3.69,2.69s0.88,3.69,2.69,3.94s3.06,0.38,4.13,1.06s4.69,4.94,9.88,4.5S303.01,295.71,298.8,291.59z"/>
				<path class="st31" d="M309.87,288.38c0,0,0.31-1.66-1-1.79s-9.81,0.85-10.5,0.89c-0.69,0.04-2,1.04-2.19,2.67
					s-0.69,21-0.5,23.38s0.22,2.69,2.06,3.5c2.69,1.19,6.94,1.13,7.63,1.19s1.63-1.06,1.69-2.31S309.87,288.38,309.87,288.38z"/>
				<g>
					<path class="st7" d="M329.47,323.25c0,0,0.38-1.57,1.09-3.84c0.36-1.14,0.79-2.46,1.3-3.86c0.5-1.4,1.09-2.88,1.7-4.35
						c0.63-1.46,1.3-2.9,1.99-4.23c0.36-0.66,0.67-1.3,1.03-1.89c0.35-0.59,0.67-1.15,0.99-1.66c0.33-0.5,0.63-0.96,0.9-1.36
						c0.26-0.41,0.54-0.73,0.74-1.02c0.42-0.56,0.66-0.88,0.66-0.88c0.13-0.17,0.37-0.2,0.54-0.08c0.16,0.12,0.2,0.35,0.09,0.52
						l-0.02,0.02c0,0-0.22,0.32-0.6,0.88c-0.18,0.29-0.44,0.61-0.68,1.02c-0.24,0.41-0.51,0.87-0.81,1.37
						c-0.29,0.51-0.57,1.08-0.89,1.66c-0.32,0.59-0.59,1.24-0.91,1.9c-0.61,1.33-1.19,2.78-1.74,4.23
						c-0.53,1.47-1.04,2.94-1.46,4.35c-0.44,1.4-0.79,2.72-1.09,3.85c-0.59,2.27-0.88,3.78-0.88,3.78c-0.1,0.54-0.63,0.9-1.17,0.79
						c-0.54-0.1-0.9-0.63-0.79-1.17c0-0.01,0.01-0.03,0.01-0.04L329.47,323.25z"/>
				</g>
				<g>
					<path class="st7" d="M329.88,321.88c0,0-0.04-0.33-0.1-0.89c-0.06-0.58-0.15-1.4-0.22-2.38c-0.09-0.98-0.16-2.13-0.22-3.36
						c-0.09-1.23-0.08-2.54-0.11-3.85c-0.03-0.65,0.01-1.31,0.03-1.96c0.02-0.65,0.04-1.28,0.06-1.9c0.03-0.62,0.11-1.21,0.16-1.78
						c0.06-0.56,0.11-1.1,0.16-1.59c0.05-0.49,0.18-0.94,0.26-1.34c0.08-0.4,0.16-0.74,0.22-1.03c0.12-0.57,0.19-0.89,0.19-0.89
						c0.05-0.25,0.3-0.41,0.55-0.35c0.24,0.05,0.4,0.28,0.36,0.52l-0.01,0.07c0,0-0.05,0.32-0.14,0.87
						c-0.04,0.27-0.1,0.61-0.16,0.99c-0.05,0.38-0.15,0.81-0.18,1.29c-0.02,0.48-0.05,1-0.07,1.55c-0.02,0.55-0.07,1.13-0.07,1.73
						c0.01,0.6,0.03,1.23,0.04,1.86c0.02,0.63,0.01,1.27,0.07,1.92c0.1,1.29,0.16,2.57,0.31,3.77c0.12,1.2,0.25,2.32,0.39,3.28
						c0.12,0.96,0.25,1.75,0.33,2.3c0.09,0.56,0.14,0.88,0.14,0.88l0,0.01c0.09,0.54-0.28,1.06-0.82,1.15
						c-0.55,0.09-1.06-0.28-1.15-0.82C329.89,321.91,329.88,321.89,329.88,321.88z"/>
				</g>
				<path class="st5" d="M319.2,364.88c0,0,12.69,6.71,27.05,9.21"/>
			</g>
			<g>
				<path class="st37" d="M396.86,281.12l12.11,4.43c3.75,0.83,37,3.26,37,3.26l0.33,26.99c0,0-12.33,6.08-26.75,7.67
					c4.25,11.92,11.25,41.42,11.25,41.42c1.42,2.42,3.17,7.58,2.33,8.75c-0.83,1.17-7.67,4.92-16.33,7.5
					c-8.67,2.58-11.17,2.33-11.58,0.58c-0.42-1.75-13.4-71-14.33-76.19s-0.88-11.69,0-15.5s3.99-8.62,3.99-8.62L396.86,281.12z"/>
				<path class="st20" d="M451.2,291.59c0,0,9.69-9.62,11.19-10.47c1.5-0.84,3.31-1.41,4,2.53s-2.19,15.25-2.19,15.25
					s3.5,1.25,3.69,2.69s-0.88,3.69-2.69,3.94s-3.06,0.38-4.13,1.06s-4.69,4.94-9.88,4.5S446.99,295.71,451.2,291.59z"/>
				<path class="st31" d="M440.13,288.38c0,0-0.31-1.66,1-1.79s9.81,0.85,10.5,0.89c0.69,0.04,2,1.04,2.19,2.67s0.69,21,0.5,23.38
					s-0.23,2.69-2.06,3.5c-2.69,1.19-6.94,1.13-7.63,1.19s-1.63-1.06-1.69-2.31S440.13,288.38,440.13,288.38z"/>
				<g>
					<path class="st7" d="M418.57,323.69c0,0-0.29-1.51-0.88-3.78c-0.3-1.13-0.65-2.45-1.09-3.85c-0.42-1.4-0.93-2.88-1.46-4.34
						c-0.55-1.46-1.14-2.91-1.74-4.23c-0.32-0.66-0.6-1.31-0.91-1.9c-0.31-0.59-0.6-1.16-0.89-1.66c-0.3-0.5-0.57-0.96-0.81-1.37
						c-0.24-0.41-0.49-0.74-0.68-1.02c-0.38-0.56-0.6-0.88-0.6-0.88l-0.01-0.02c-0.12-0.18-0.07-0.42,0.1-0.53
						c0.17-0.12,0.4-0.08,0.52,0.09c0,0,0.24,0.32,0.66,0.88c0.2,0.28,0.48,0.61,0.75,1.02c0.27,0.41,0.57,0.86,0.9,1.36
						c0.32,0.5,0.64,1.07,0.99,1.66c0.35,0.59,0.67,1.24,1.03,1.89c0.69,1.33,1.35,2.77,1.99,4.23c0.61,1.47,1.2,2.94,1.7,4.35
						c0.51,1.4,0.94,2.72,1.3,3.86c0.71,2.27,1.09,3.84,1.09,3.84l0,0.01c0.13,0.54-0.2,1.08-0.73,1.21
						c-0.54,0.13-1.08-0.2-1.21-0.73C418.58,323.72,418.58,323.7,418.57,323.69z"/>
				</g>
				<g>
					<path class="st7" d="M418.14,321.59c0,0,0.05-0.32,0.14-0.88c0.08-0.55,0.21-1.34,0.33-2.3c0.14-0.96,0.26-2.08,0.39-3.28
						c0.15-1.2,0.21-2.49,0.31-3.77c0.06-0.64,0.05-1.29,0.07-1.92c0.01-0.63,0.03-1.26,0.04-1.86c0-0.6-0.05-1.18-0.07-1.73
						c-0.03-0.55-0.05-1.07-0.07-1.55c-0.03-0.48-0.13-0.9-0.18-1.29c-0.06-0.38-0.11-0.72-0.16-0.99
						c-0.09-0.55-0.14-0.87-0.14-0.87l-0.01-0.07c-0.04-0.25,0.13-0.49,0.38-0.53c0.24-0.04,0.47,0.12,0.52,0.36
						c0,0,0.07,0.32,0.19,0.89c0.06,0.28,0.13,0.63,0.22,1.03c0.07,0.4,0.2,0.84,0.26,1.34c0.05,0.49,0.1,1.03,0.16,1.59
						c0.05,0.56,0.13,1.16,0.16,1.78c0.02,0.62,0.04,1.25,0.06,1.9c0.01,0.65,0.05,1.31,0.03,1.96c-0.03,1.31-0.02,2.63-0.11,3.85
						c-0.06,1.23-0.13,2.38-0.22,3.36c-0.07,0.98-0.16,1.8-0.22,2.38c-0.06,0.57-0.1,0.89-0.1,0.89c-0.06,0.55-0.56,0.94-1.11,0.88
						c-0.55-0.06-0.94-0.56-0.88-1.11c0-0.02,0-0.03,0.01-0.05L418.14,321.59z"/>
				</g>
				<path class="st5" d="M430.8,364.88c0,0-12.69,6.71-27.05,9.21"/>
			</g>
		</g>
		<path class="st30" d="M385.6,328.76c0.3-0.81,0.57-1.68,0.79-2.6c1.25-5.24,0.46-9.91-1.75-10.44c-2.22-0.53-5.03,3.29-6.28,8.53
			c-0.1,0.41-0.18,0.82-0.25,1.22c-1-0.17-2.04-0.26-3.11-0.26c-1.07,0-2.11,0.09-3.11,0.26c-0.07-0.4-0.15-0.81-0.25-1.22
			c-1.25-5.24-4.06-9.06-6.28-8.53c-2.21,0.53-3,5.2-1.75,10.44c0.22,0.92,0.49,1.78,0.79,2.6c-2.34,1.94-3.78,4.51-3.78,7.35
			c0,6.02,6.44,10.9,14.38,10.9c7.94,0,14.38-4.88,14.38-10.9C389.38,333.27,387.94,330.7,385.6,328.76z"/>
		<g>
			<path class="st31" d="M311.9,269.74c0,1.54-1.25,2.79-2.79,2.79l0,0c-1.54,0-2.79-1.25-2.79-2.79v-7.5
				c0-1.54,1.25-2.79,2.79-2.79l0,0c1.54,0,2.79,1.25,2.79,2.79V269.74z"/>
			<path class="st31" d="M443.69,269.74c0,1.54-1.25,2.79-2.79,2.79l0,0c-1.54,0-2.79-1.25-2.79-2.79v-7.5
				c0-1.54,1.25-2.79,2.79-2.79l0,0c1.54,0,2.79,1.25,2.79,2.79V269.74z"/>
		</g>
	</g>
</g>
</svg>
